<?xml version='1.0' encoding='utf-8'?>
<svg xmlns="http://www.w3.org/2000/svg" width="1220" height="1070" viewBox="0 0 1220 1070"><text x="40" y="48" fill="#1e293b" font-family="Microsoft YaHei, sans-serif" font-size="26" text-anchor="start">SessionController · UML 类图</text><rect x="40" y="85" width="760" height="940" fill="#ffffff" stroke="#334155" stroke-width="2" /><rect x="40" y="85" width="760" height="54" fill="#e0f2fe" stroke="#334155" stroke-width="2" /><text x="420" y="122" fill="#1e293b" font-family="Microsoft YaHei, sans-serif" font-size="23" text-anchor="middle">SessionController</text><text x="58" y="171" fill="#1e293b" font-family="Microsoft YaHei, sans-serif" font-size="17" text-anchor="start">-MainWindow* m_view</text><text x="58" y="201" fill="#1e293b" font-family="Microsoft YaHei, sans-serif" font-size="17" text-anchor="start">-LoginModel* m_login</text><text x="58" y="231" fill="#1e293b" font-family="Microsoft YaHei, sans-serif" font-size="17" text-anchor="start">-SessionModel* m_model</text><text x="58" y="261" fill="#1e293b" font-family="Microsoft YaHei, sans-serif" font-size="17" text-anchor="start">-SignalClient* m_signal</text><text x="58" y="291" fill="#1e293b" font-family="Microsoft YaHei, sans-serif" font-size="17" text-anchor="start">-QTimer m_expiry</text><text x="58" y="321" fill="#1e293b" font-family="Microsoft YaHei, sans-serif" font-size="17" text-anchor="start">-QString m_pending</text><text x="58" y="351" fill="#1e293b" font-family="Microsoft YaHei, sans-serif" font-size="17" text-anchor="start">-QString m_closedRoom</text><text x="58" y="381" fill="#1e293b" font-family="Microsoft YaHei, sans-serif" font-size="17" text-anchor="start">-QJsonArray m_listing</text><text x="58" y="411" fill="#1e293b" font-family="Microsoft YaHei, sans-serif" font-size="17" text-anchor="start">-int m_offset</text><line x1="40" y1="418" x2="800" y2="418" stroke="#64748b" stroke-width="2" /><text x="58" y="441" fill="#1e293b" font-family="Microsoft YaHei, sans-serif" font-size="17" text-anchor="start">+SessionController(view, login, model, signal)</text><text x="58" y="471" fill="#1e293b" font-family="Microsoft YaHei, sans-serif" font-size="17" text-anchor="start">-onLoginChanged() void</text><text x="58" y="501" fill="#1e293b" font-family="Microsoft YaHei, sans-serif" font-size="17" text-anchor="start">-reconnect() void</text><text x="58" y="531" fill="#1e293b" font-family="Microsoft YaHei, sans-serif" font-size="17" text-anchor="start">-refreshView() void</text><text x="58" y="561" fill="#1e293b" font-family="Microsoft YaHei, sans-serif" font-size="17" text-anchor="start">-execute(type, fields) void</text><text x="58" y="591" fill="#1e293b" font-family="Microsoft YaHei, sans-serif" font-size="17" text-anchor="start">-refreshRooms() void</text><text x="58" y="621" fill="#1e293b" font-family="Microsoft YaHei, sans-serif" font-size="17" text-anchor="start">-onResponse(id, type, ok, data, error) void</text><text x="58" y="651" fill="#1e293b" font-family="Microsoft YaHei, sans-serif" font-size="17" text-anchor="start">-onEvent(event, data) void</text><text x="58" y="681" fill="#1e293b" font-family="Microsoft YaHei, sans-serif" font-size="17" text-anchor="start">-scheduleExpiry() void</text><rect x="950" y="110" width="235" height="54" fill="#f1f5f9" stroke="#334155" stroke-width="2" /><text x="1067" y="139" fill="#1e293b" font-family="Microsoft YaHei, sans-serif" font-size="17" text-anchor="middle">QObject</text><rect x="950" y="260" width="235" height="54" fill="#f1f5f9" stroke="#334155" stroke-width="2" /><text x="1067" y="289" fill="#1e293b" font-family="Microsoft YaHei, sans-serif" font-size="17" text-anchor="middle">MainWindow</text><rect x="950" y="410" width="235" height="54" fill="#f1f5f9" stroke="#334155" stroke-width="2" /><text x="1067" y="439" fill="#1e293b" font-family="Microsoft YaHei, sans-serif" font-size="17" text-anchor="middle">LoginModel</text><rect x="950" y="560" width="235" height="54" fill="#f1f5f9" stroke="#334155" stroke-width="2" /><text x="1067" y="589" fill="#1e293b" font-family="Microsoft YaHei, sans-serif" font-size="17" text-anchor="middle">SessionModel</text><rect x="950" y="710" width="235" height="54" fill="#f1f5f9" stroke="#334155" stroke-width="2" /><text x="1067" y="739" fill="#1e293b" font-family="Microsoft YaHei, sans-serif" font-size="17" text-anchor="middle">SignalClient</text><rect x="950" y="860" width="235" height="54" fill="#f1f5f9" stroke="#334155" stroke-width="2" /><text x="1067" y="889" fill="#1e293b" font-family="Microsoft YaHei, sans-serif" font-size="17" text-anchor="middle">QTimer</text><line x1="800" y1="180" x2="950" y2="137" stroke="#64748b" stroke-width="2" /><polygon points="950,137 939.4323093695843,147.31134883222487 935.5743653068128,133.85340442720795" fill="#ffffff" stroke="#64748b" stroke-width="2" /><line x1="800" y1="275" x2="950" y2="287" stroke="#64748b" stroke-width="2" /><line x1="950" y1="287" x2="936.4831848230501" y2="292.9410190600753" stroke="#64748b" stroke-width="2" /><line x1="950" y1="287" x2="937.5996179350107" y2="278.98560516056955" stroke="#64748b" stroke-width="2" /><text x="818" y="262" fill="#1e293b" font-family="Microsoft YaHei, sans-serif" font-size="12" text-anchor="start">view intents</text><line x1="800" y1="370" x2="950" y2="437" stroke="#64748b" stroke-width="2" /><line x1="950" y1="437" x2="935.2754350615251" y2="438.08958128316954" stroke="#64748b" stroke-width="2" /><line x1="950" y1="437" x2="940.9850844671842" y2="425.3067841063206" stroke="#64748b" stroke-width="2" /><text x="818" y="357" fill="#1e293b" font-family="Microsoft YaHei, sans-serif" font-size="12" text-anchor="start">session credentials</text><line x1="800" y1="465" x2="950" y2="587" stroke="#64748b" stroke-width="2" /><line x1="950" y1="587" x2="935.4977587570066" y2="584.2278169378586" stroke="#64748b" stroke-width="2" /><line x1="950" y1="587" x2="944.3315062759199" y2="573.3666519555883" stroke="#64748b" stroke-width="2" /><text x="818" y="452" fill="#1e293b" font-family="Microsoft YaHei, sans-serif" font-size="12" text-anchor="start">business state</text><line x1="800" y1="560" x2="950" y2="737" stroke="#64748b" stroke-width="2" /><line x1="950" y1="737" x2="936.2549487557617" y2="731.6080090603506" stroke="#64748b" stroke-width="2" /><line x1="950" y1="737" x2="946.9354871637963" y2="722.5567053247279" stroke="#64748b" stroke-width="2" /><text x="818" y="547" fill="#1e293b" font-family="Microsoft YaHei, sans-serif" font-size="12" text-anchor="start">async transport</text><line x1="800" y1="655" x2="950" y2="887" stroke="#64748b" stroke-width="2" /><line x1="950" y1="887" x2="937.063285711027" y2="879.8837212389141" stroke="#64748b" stroke-width="2" /><line x1="950" y1="887" x2="948.8199863295454" y2="872.2824061838377" stroke="#64748b" stroke-width="2" /><polygon points="800,655 808,650 816,655 808,660" fill="#64748b" stroke="#64748b" stroke-width="2" /><text x="818" y="642" fill="#1e293b" font-family="Microsoft YaHei, sans-serif" font-size="12" text-anchor="start">login expiry</text></svg>