<?xml version='1.0' encoding='utf-8'?>
<svg xmlns="http://www.w3.org/2000/svg" width="1300" height="1122" viewBox="0 0 1300 1122"><text x="35" y="46" fill="#1e293b" font-family="Microsoft YaHei, sans-serif" font-size="26" text-anchor="start">播放模式切换时序图</text><rect x="18.0" y="80" width="224" height="55" fill="#e0f2fe" stroke="#334155" stroke-width="2" /><text x="130.0" y="113" fill="#1e293b" font-family="Microsoft YaHei, sans-serif" font-size="17" text-anchor="middle">用户</text><line x1="130.0" y1="135" x2="130.0" y2="1087" stroke="#64748b" stroke-width="2" stroke-dasharray="7 5" /><rect x="278.0" y="80" width="224" height="55" fill="#e0f2fe" stroke="#334155" stroke-width="2" /><text x="390.0" y="113" fill="#1e293b" font-family="Microsoft YaHei, sans-serif" font-size="17" text-anchor="middle">播放端 MainWindow</text><line x1="390.0" y1="135" x2="390.0" y2="1087" stroke="#64748b" stroke-width="2" stroke-dasharray="7 5" /><rect x="538.0" y="80" width="224" height="55" fill="#e0f2fe" stroke="#334155" stroke-width="2" /><text x="650.0" y="113" fill="#1e293b" font-family="Microsoft YaHei, sans-serif" font-size="17" text-anchor="middle">SessionController</text><line x1="650.0" y1="135" x2="650.0" y2="1087" stroke="#64748b" stroke-width="2" stroke-dasharray="7 5" /><rect x="798.0" y="80" width="224" height="55" fill="#e0f2fe" stroke="#334155" stroke-width="2" /><text x="910.0" y="113" fill="#1e293b" font-family="Microsoft YaHei, sans-serif" font-size="17" text-anchor="middle">SignalClient</text><line x1="910.0" y1="135" x2="910.0" y2="1087" stroke="#64748b" stroke-width="2" stroke-dasharray="7 5" /><rect x="1058.0" y="80" width="224" height="55" fill="#e0f2fe" stroke="#334155" stroke-width="2" /><text x="1170.0" y="113" fill="#1e293b" font-family="Microsoft YaHei, sans-serif" font-size="17" text-anchor="middle">SignalServer</text><line x1="1170.0" y1="135" x2="1170.0" y2="1087" stroke="#64748b" stroke-width="2" stroke-dasharray="7 5" /><line x1="130.0" y1="175" x2="390.0" y2="175" stroke="#64748b" stroke-width="2" /><line x1="390.0" y1="175" x2="377.0" y2="182.0" stroke="#64748b" stroke-width="2" /><line x1="390.0" y1="175" x2="377.0" y2="168.0" stroke="#64748b" stroke-width="2" /><text x="260.0" y="164" fill="#1e293b" font-family="Microsoft YaHei, sans-serif" font-size="14" text-anchor="middle">直播切换为点播</text><line x1="390.0" y1="232" x2="480.0" y2="232" stroke="#64748b" stroke-width="2" /><line x1="480.0" y1="232" x2="480.0" y2="250" stroke="#64748b" stroke-width="2" /><line x1="480.0" y1="250" x2="390.0" y2="250" stroke="#64748b" stroke-width="2" /><line x1="390.0" y1="250" x2="403.0" y2="243.0" stroke="#64748b" stroke-width="2" /><line x1="390.0" y1="250" x2="403.0" y2="257.0" stroke="#64748b" stroke-width="2" /><text x="398.0" y="221" fill="#1e293b" font-family="Microsoft YaHei, sans-serif" font-size="14" text-anchor="start">显示本地文件与在线地址输入</text><text x="14" y="280" fill="#1e293b" font-family="Microsoft YaHei, sans-serif" font-size="14" text-anchor="start">[alt] 已在直播房间</text><line x1="8" y1="261" x2="1292" y2="261" stroke="#64748b" stroke-width="2" /><line x1="390.0" y1="346" x2="650.0" y2="346" stroke="#64748b" stroke-width="2" stroke-dasharray="7 5" /><line x1="650.0" y1="346" x2="637.0" y2="353.0" stroke="#64748b" stroke-width="2" /><line x1="650.0" y1="346" x2="637.0" y2="339.0" stroke="#64748b" stroke-width="2" /><text x="520.0" y="335" fill="#1e293b" font-family="Microsoft YaHei, sans-serif" font-size="14" text-anchor="middle">leaveRoomRequested</text><line x1="650.0" y1="403" x2="910.0" y2="403" stroke="#64748b" stroke-width="2" /><line x1="910.0" y1="403" x2="897.0" y2="410.0" stroke="#64748b" stroke-width="2" /><line x1="910.0" y1="403" x2="897.0" y2="396.0" stroke="#64748b" stroke-width="2" /><text x="780.0" y="392" fill="#1e293b" font-family="Microsoft YaHei, sans-serif" font-size="14" text-anchor="middle">request room.leave</text><line x1="910.0" y1="460" x2="1170.0" y2="460" stroke="#64748b" stroke-width="2" /><line x1="1170.0" y1="460" x2="1157.0" y2="467.0" stroke="#64748b" stroke-width="2" /><line x1="1170.0" y1="460" x2="1157.0" y2="453.0" stroke="#64748b" stroke-width="2" /><text x="1040.0" y="449" fill="#1e293b" font-family="Microsoft YaHei, sans-serif" font-size="14" text-anchor="middle">退出房间</text><line x1="1170.0" y1="517" x2="910.0" y2="517" stroke="#64748b" stroke-width="2" stroke-dasharray="7 5" /><line x1="910.0" y1="517" x2="923.0" y2="510.0" stroke="#64748b" stroke-width="2" /><line x1="910.0" y1="517" x2="923.0" y2="524.0" stroke="#64748b" stroke-width="2" /><text x="1040.0" y="506" fill="#1e293b" font-family="Microsoft YaHei, sans-serif" font-size="14" text-anchor="middle">成功或失败</text><line x1="910.0" y1="574" x2="650.0" y2="574" stroke="#64748b" stroke-width="2" stroke-dasharray="7 5" /><line x1="650.0" y1="574" x2="663.0" y2="567.0" stroke="#64748b" stroke-width="2" /><line x1="650.0" y1="574" x2="663.0" y2="581.0" stroke="#64748b" stroke-width="2" /><text x="780.0" y="563" fill="#1e293b" font-family="Microsoft YaHei, sans-serif" font-size="14" text-anchor="middle">response</text><line x1="650.0" y1="631" x2="390.0" y2="631" stroke="#64748b" stroke-width="2" /><line x1="390.0" y1="631" x2="403.0" y2="624.0" stroke="#64748b" stroke-width="2" /><line x1="390.0" y1="631" x2="403.0" y2="638.0" stroke="#64748b" stroke-width="2" /><text x="520.0" y="620" fill="#1e293b" font-family="Microsoft YaHei, sans-serif" font-size="14" text-anchor="middle">更新房间状态与按钮</text><line x1="8" y1="660" x2="1292" y2="660" stroke="#64748b" stroke-width="2" stroke-dasharray="7 5" /><text x="14" y="679" fill="#1e293b" font-family="Microsoft YaHei, sans-serif" font-size="14" text-anchor="start">[else] 尚未加入</text><line x1="390.0" y1="745" x2="480.0" y2="745" stroke="#64748b" stroke-width="2" /><line x1="480.0" y1="745" x2="480.0" y2="763" stroke="#64748b" stroke-width="2" /><line x1="480.0" y1="763" x2="390.0" y2="763" stroke="#64748b" stroke-width="2" /><line x1="390.0" y1="763" x2="403.0" y2="756.0" stroke="#64748b" stroke-width="2" /><line x1="390.0" y1="763" x2="403.0" y2="770.0" stroke="#64748b" stroke-width="2" /><text x="398.0" y="734" fill="#1e293b" font-family="Microsoft YaHei, sans-serif" font-size="14" text-anchor="start">直接切换页面</text><line x1="8" y1="261" x2="8" y2="780" stroke="#64748b" stroke-width="2" /><line x1="1292" y1="261" x2="1292" y2="780" stroke="#64748b" stroke-width="2" /><line x1="8" y1="780" x2="1292" y2="780" stroke="#64748b" stroke-width="2" /><rect x="589.5" y="832" width="381.0" height="40" fill="#fef9c3" stroke="#334155" stroke-width="2" /><text x="780.0" y="854" fill="#1e293b" font-family="Microsoft YaHei, sans-serif" font-size="13" text-anchor="middle">请求进行中禁用模式切换；失败保留房间状态，可退出或重连</text><line x1="130.0" y1="916" x2="390.0" y2="916" stroke="#64748b" stroke-width="2" /><line x1="390.0" y1="916" x2="377.0" y2="923.0" stroke="#64748b" stroke-width="2" /><line x1="390.0" y1="916" x2="377.0" y2="909.0" stroke="#64748b" stroke-width="2" /><text x="260.0" y="905" fill="#1e293b" font-family="Microsoft YaHei, sans-serif" font-size="14" text-anchor="middle">选择本地文件或填写在线地址</text><line x1="390.0" y1="973" x2="480.0" y2="973" stroke="#64748b" stroke-width="2" /><line x1="480.0" y1="973" x2="480.0" y2="991" stroke="#64748b" stroke-width="2" /><line x1="480.0" y1="991" x2="390.0" y2="991" stroke="#64748b" stroke-width="2" /><line x1="390.0" y1="991" x2="403.0" y2="984.0" stroke="#64748b" stroke-width="2" /><line x1="390.0" y1="991" x2="403.0" y2="998.0" stroke="#64748b" stroke-width="2" /><text x="398.0" y="962" fill="#1e293b" font-family="Microsoft YaHei, sans-serif" font-size="14" text-anchor="start">保存输入，播放按钮保持禁用</text><rect x="128.0" y="1003" width="264.0" height="40" fill="#fef9c3" stroke="#334155" stroke-width="2" /><text x="260.0" y="1025" fill="#1e293b" font-family="Microsoft YaHei, sans-serif" font-size="13" text-anchor="middle">解码、音频输出和实际播放属于下一阶段</text></svg>