<?xml version='1.0' encoding='utf-8'?>
<svg xmlns="http://www.w3.org/2000/svg" width="1100" height="951" viewBox="0 0 1100 951"><text x="35" y="46" fill="#1e293b" font-family="Microsoft YaHei, sans-serif" font-size="26" text-anchor="start">独立登录时序图</text><rect x="25.5" y="80" width="224" height="55" fill="#e0f2fe" stroke="#334155" stroke-width="2" /><text x="137.5" y="113" fill="#1e293b" font-family="Microsoft YaHei, sans-serif" font-size="17" text-anchor="middle">登录客户端</text><line x1="137.5" y1="135" x2="137.5" y2="916" stroke="#64748b" stroke-width="2" stroke-dasharray="7 5" /><rect x="300.5" y="80" width="224" height="55" fill="#e0f2fe" stroke="#334155" stroke-width="2" /><text x="412.5" y="113" fill="#1e293b" font-family="Microsoft YaHei, sans-serif" font-size="17" text-anchor="middle">HttpServer</text><line x1="412.5" y1="135" x2="412.5" y2="916" stroke="#64748b" stroke-width="2" stroke-dasharray="7 5" /><rect x="575.5" y="80" width="224" height="55" fill="#e0f2fe" stroke="#334155" stroke-width="2" /><text x="687.5" y="113" fill="#1e293b" font-family="Microsoft YaHei, sans-serif" font-size="17" text-anchor="middle">LoginServer</text><line x1="687.5" y1="135" x2="687.5" y2="916" stroke="#64748b" stroke-width="2" stroke-dasharray="7 5" /><rect x="850.5" y="80" width="224" height="55" fill="#e0f2fe" stroke="#334155" stroke-width="2" /><text x="962.5" y="113" fill="#1e293b" font-family="Microsoft YaHei, sans-serif" font-size="17" text-anchor="middle">AuthService</text><line x1="962.5" y1="135" x2="962.5" y2="916" stroke="#64748b" stroke-width="2" stroke-dasharray="7 5" /><line x1="137.5" y1="175" x2="412.5" y2="175" stroke="#64748b" stroke-width="2" /><line x1="412.5" y1="175" x2="399.5" y2="182.0" stroke="#64748b" stroke-width="2" /><line x1="412.5" y1="175" x2="399.5" y2="168.0" stroke="#64748b" stroke-width="2" /><text x="275.0" y="164" fill="#1e293b" font-family="Microsoft YaHei, sans-serif" font-size="14" text-anchor="middle">POST auth/login</text><line x1="412.5" y1="232" x2="687.5" y2="232" stroke="#64748b" stroke-width="2" /><line x1="687.5" y1="232" x2="674.5" y2="239.0" stroke="#64748b" stroke-width="2" /><line x1="687.5" y1="232" x2="674.5" y2="225.0" stroke="#64748b" stroke-width="2" /><text x="550.0" y="221" fill="#1e293b" font-family="Microsoft YaHei, sans-serif" font-size="14" text-anchor="middle">已验证边界的HTTP请求</text><line x1="687.5" y1="289" x2="777.5" y2="289" stroke="#64748b" stroke-width="2" /><line x1="777.5" y1="289" x2="777.5" y2="307" stroke="#64748b" stroke-width="2" /><line x1="777.5" y1="307" x2="687.5" y2="307" stroke="#64748b" stroke-width="2" /><line x1="687.5" y1="307" x2="700.5" y2="300.0" stroke="#64748b" stroke-width="2" /><line x1="687.5" y1="307" x2="700.5" y2="314.0" stroke="#64748b" stroke-width="2" /><text x="695.5" y="278" fill="#1e293b" font-family="Microsoft YaHei, sans-serif" font-size="14" text-anchor="start">内容类型与节点限流检查</text><line x1="687.5" y1="346" x2="962.5" y2="346" stroke="#64748b" stroke-width="2" /><line x1="962.5" y1="346" x2="949.5" y2="353.0" stroke="#64748b" stroke-width="2" /><line x1="962.5" y1="346" x2="949.5" y2="339.0" stroke="#64748b" stroke-width="2" /><text x="825.0" y="335" fill="#1e293b" font-family="Microsoft YaHei, sans-serif" font-size="14" text-anchor="middle">校验开发账号</text><text x="14" y="394" fill="#1e293b" font-family="Microsoft YaHei, sans-serif" font-size="14" text-anchor="start">[alt] 字段或账号错误</text><line x1="8" y1="375" x2="1092" y2="375" stroke="#64748b" stroke-width="2" /><line x1="687.5" y1="460" x2="412.5" y2="460" stroke="#64748b" stroke-width="2" stroke-dasharray="7 5" /><line x1="412.5" y1="460" x2="425.5" y2="453.0" stroke="#64748b" stroke-width="2" /><line x1="412.5" y1="460" x2="425.5" y2="467.0" stroke="#64748b" stroke-width="2" /><text x="550.0" y="449" fill="#1e293b" font-family="Microsoft YaHei, sans-serif" font-size="14" text-anchor="middle">400或401错误JSON</text><line x1="8" y1="489" x2="1092" y2="489" stroke="#64748b" stroke-width="2" stroke-dasharray="7 5" /><text x="14" y="508" fill="#1e293b" font-family="Microsoft YaHei, sans-serif" font-size="14" text-anchor="start">[else] 账号有效</text><line x1="962.5" y1="574" x2="1052.5" y2="574" stroke="#64748b" stroke-width="2" /><line x1="1052.5" y1="574" x2="1052.5" y2="592" stroke="#64748b" stroke-width="2" /><line x1="1052.5" y1="592" x2="962.5" y2="592" stroke="#64748b" stroke-width="2" /><line x1="962.5" y1="592" x2="975.5" y2="585.0" stroke="#64748b" stroke-width="2" /><line x1="962.5" y1="592" x2="975.5" y2="599.0" stroke="#64748b" stroke-width="2" /><text x="780.5" y="563" fill="#1e293b" font-family="Microsoft YaHei, sans-serif" font-size="14" text-anchor="start">随机会话标识与HMAC签名</text><line x1="962.5" y1="631" x2="687.5" y2="631" stroke="#64748b" stroke-width="2" stroke-dasharray="7 5" /><line x1="687.5" y1="631" x2="700.5" y2="624.0" stroke="#64748b" stroke-width="2" /><line x1="687.5" y1="631" x2="700.5" y2="638.0" stroke="#64748b" stroke-width="2" /><text x="825.0" y="620" fill="#1e293b" font-family="Microsoft YaHei, sans-serif" font-size="14" text-anchor="middle">带到期时间的令牌</text><line x1="687.5" y1="688" x2="412.5" y2="688" stroke="#64748b" stroke-width="2" stroke-dasharray="7 5" /><line x1="412.5" y1="688" x2="425.5" y2="681.0" stroke="#64748b" stroke-width="2" /><line x1="412.5" y1="688" x2="425.5" y2="695.0" stroke="#64748b" stroke-width="2" /><text x="550.0" y="677" fill="#1e293b" font-family="Microsoft YaHei, sans-serif" font-size="14" text-anchor="middle">令牌与用户及有效期</text><line x1="8" y1="375" x2="8" y2="723" stroke="#64748b" stroke-width="2" /><line x1="1092" y1="375" x2="1092" y2="723" stroke="#64748b" stroke-width="2" /><line x1="8" y1="723" x2="1092" y2="723" stroke="#64748b" stroke-width="2" /><line x1="412.5" y1="802" x2="137.5" y2="802" stroke="#64748b" stroke-width="2" stroke-dasharray="7 5" /><line x1="137.5" y1="802" x2="150.5" y2="795.0" stroke="#64748b" stroke-width="2" /><line x1="137.5" y1="802" x2="150.5" y2="809.0" stroke="#64748b" stroke-width="2" /><text x="275.0" y="791" fill="#1e293b" font-family="Microsoft YaHei, sans-serif" font-size="14" text-anchor="middle">HTTP响应</text><rect x="699.5" y="832" width="251.0" height="40" fill="#fef9c3" stroke="#334155" stroke-width="2" /><text x="825.0" y="854" fill="#1e293b" font-family="Microsoft YaHei, sans-serif" font-size="13" text-anchor="middle">只提供root开发账号，不记录认证正文</text></svg>