<?xml version='1.0' encoding='utf-8'?>
<svg xmlns="http://www.w3.org/2000/svg" width="1100" height="1122" viewBox="0 0 1100 1122"><text x="35" y="46" fill="#1e293b" font-family="Microsoft YaHei, sans-serif" font-size="26" text-anchor="start">登录节点调度时序图</text><rect x="25.5" y="80" width="224" height="55" fill="#e0f2fe" stroke="#334155" stroke-width="2" /><text x="137.5" y="113" fill="#1e293b" font-family="Microsoft YaHei, sans-serif" font-size="17" text-anchor="middle">客户端</text><line x1="137.5" y1="135" x2="137.5" y2="1087" stroke="#64748b" stroke-width="2" stroke-dasharray="7 5" /><rect x="300.5" y="80" width="224" height="55" fill="#e0f2fe" stroke="#334155" stroke-width="2" /><text x="412.5" y="113" fill="#1e293b" font-family="Microsoft YaHei, sans-serif" font-size="17" text-anchor="middle">SchedulerServer</text><line x1="412.5" y1="135" x2="412.5" y2="1087" stroke="#64748b" stroke-width="2" stroke-dasharray="7 5" /><rect x="575.5" y="80" width="224" height="55" fill="#e0f2fe" stroke="#334155" stroke-width="2" /><text x="687.5" y="113" fill="#1e293b" font-family="Microsoft YaHei, sans-serif" font-size="17" text-anchor="middle">HttpProbe</text><line x1="687.5" y1="135" x2="687.5" y2="1087" stroke="#64748b" stroke-width="2" stroke-dasharray="7 5" /><rect x="850.5" y="80" width="224" height="55" fill="#e0f2fe" stroke="#334155" stroke-width="2" /><text x="962.5" y="113" fill="#1e293b" font-family="Microsoft YaHei, sans-serif" font-size="17" text-anchor="middle">登录节点</text><line x1="962.5" y1="135" x2="962.5" y2="1087" stroke="#64748b" stroke-width="2" stroke-dasharray="7 5" /><line x1="412.5" y1="175" x2="687.5" y2="175" stroke="#64748b" stroke-width="2" /><line x1="687.5" y1="175" x2="674.5" y2="182.0" stroke="#64748b" stroke-width="2" /><line x1="687.5" y1="175" x2="674.5" y2="168.0" stroke="#64748b" stroke-width="2" /><text x="550.0" y="164" fill="#1e293b" font-family="Microsoft YaHei, sans-serif" font-size="14" text-anchor="middle">启动及每两秒发起探测</text><line x1="687.5" y1="232" x2="962.5" y2="232" stroke="#64748b" stroke-width="2" /><line x1="962.5" y1="232" x2="949.5" y2="239.0" stroke="#64748b" stroke-width="2" /><line x1="962.5" y1="232" x2="949.5" y2="225.0" stroke="#64748b" stroke-width="2" /><text x="825.0" y="221" fill="#1e293b" font-family="Microsoft YaHei, sans-serif" font-size="14" text-anchor="middle">非阻塞GET health</text><text x="14" y="280" fill="#1e293b" font-family="Microsoft YaHei, sans-serif" font-size="14" text-anchor="start">[alt] 200且登录服务就绪</text><line x1="8" y1="261" x2="1092" y2="261" stroke="#64748b" stroke-width="2" /><line x1="962.5" y1="346" x2="687.5" y2="346" stroke="#64748b" stroke-width="2" stroke-dasharray="7 5" /><line x1="687.5" y1="346" x2="700.5" y2="339.0" stroke="#64748b" stroke-width="2" /><line x1="687.5" y1="346" x2="700.5" y2="353.0" stroke="#64748b" stroke-width="2" /><text x="825.0" y="335" fill="#1e293b" font-family="Microsoft YaHei, sans-serif" font-size="14" text-anchor="middle">健康JSON</text><line x1="687.5" y1="403" x2="412.5" y2="403" stroke="#64748b" stroke-width="2" stroke-dasharray="7 5" /><line x1="412.5" y1="403" x2="425.5" y2="396.0" stroke="#64748b" stroke-width="2" /><line x1="412.5" y1="403" x2="425.5" y2="410.0" stroke="#64748b" stroke-width="2" /><text x="550.0" y="392" fill="#1e293b" font-family="Microsoft YaHei, sans-serif" font-size="14" text-anchor="middle">标记健康</text><line x1="8" y1="432" x2="1092" y2="432" stroke="#64748b" stroke-width="2" stroke-dasharray="7 5" /><text x="14" y="451" fill="#1e293b" font-family="Microsoft YaHei, sans-serif" font-size="14" text-anchor="start">[else] 拒绝连接或800ms超时</text><line x1="687.5" y1="517" x2="412.5" y2="517" stroke="#64748b" stroke-width="2" stroke-dasharray="7 5" /><line x1="412.5" y1="517" x2="425.5" y2="510.0" stroke="#64748b" stroke-width="2" /><line x1="412.5" y1="517" x2="425.5" y2="524.0" stroke="#64748b" stroke-width="2" /><text x="550.0" y="506" fill="#1e293b" font-family="Microsoft YaHei, sans-serif" font-size="14" text-anchor="middle">标记不可用</text><line x1="8" y1="261" x2="8" y2="552" stroke="#64748b" stroke-width="2" /><line x1="1092" y1="261" x2="1092" y2="552" stroke="#64748b" stroke-width="2" /><line x1="8" y1="552" x2="1092" y2="552" stroke="#64748b" stroke-width="2" /><line x1="137.5" y1="631" x2="412.5" y2="631" stroke="#64748b" stroke-width="2" /><line x1="412.5" y1="631" x2="399.5" y2="638.0" stroke="#64748b" stroke-width="2" /><line x1="412.5" y1="631" x2="399.5" y2="624.0" stroke="#64748b" stroke-width="2" /><text x="275.0" y="620" fill="#1e293b" font-family="Microsoft YaHei, sans-serif" font-size="14" text-anchor="middle">GET login/server</text><text x="14" y="679" fill="#1e293b" font-family="Microsoft YaHei, sans-serif" font-size="14" text-anchor="start">[alt] 存在健康节点</text><line x1="8" y1="660" x2="1092" y2="660" stroke="#64748b" stroke-width="2" /><line x1="412.5" y1="745" x2="502.5" y2="745" stroke="#64748b" stroke-width="2" /><line x1="502.5" y1="745" x2="502.5" y2="763" stroke="#64748b" stroke-width="2" /><line x1="502.5" y1="763" x2="412.5" y2="763" stroke="#64748b" stroke-width="2" /><line x1="412.5" y1="763" x2="425.5" y2="756.0" stroke="#64748b" stroke-width="2" /><line x1="412.5" y1="763" x2="425.5" y2="770.0" stroke="#64748b" stroke-width="2" /><text x="420.5" y="734" fill="#1e293b" font-family="Microsoft YaHei, sans-serif" font-size="14" text-anchor="start">健康节点轮询</text><line x1="412.5" y1="802" x2="137.5" y2="802" stroke="#64748b" stroke-width="2" stroke-dasharray="7 5" /><line x1="137.5" y1="802" x2="150.5" y2="795.0" stroke="#64748b" stroke-width="2" /><line x1="137.5" y1="802" x2="150.5" y2="809.0" stroke="#64748b" stroke-width="2" /><text x="275.0" y="791" fill="#1e293b" font-family="Microsoft YaHei, sans-serif" font-size="14" text-anchor="middle">nodeId与public loginUrl</text><line x1="137.5" y1="859" x2="962.5" y2="859" stroke="#64748b" stroke-width="2" /><line x1="962.5" y1="859" x2="949.5" y2="866.0" stroke="#64748b" stroke-width="2" /><line x1="962.5" y1="859" x2="949.5" y2="852.0" stroke="#64748b" stroke-width="2" /><text x="550.0" y="848" fill="#1e293b" font-family="Microsoft YaHei, sans-serif" font-size="14" text-anchor="middle">直接POST auth/login</text><line x1="8" y1="888" x2="1092" y2="888" stroke="#64748b" stroke-width="2" stroke-dasharray="7 5" /><text x="14" y="907" fill="#1e293b" font-family="Microsoft YaHei, sans-serif" font-size="14" text-anchor="start">[else] 全部不可用</text><line x1="412.5" y1="973" x2="137.5" y2="973" stroke="#64748b" stroke-width="2" stroke-dasharray="7 5" /><line x1="137.5" y1="973" x2="150.5" y2="966.0" stroke="#64748b" stroke-width="2" /><line x1="137.5" y1="973" x2="150.5" y2="980.0" stroke="#64748b" stroke-width="2" /><text x="275.0" y="962" fill="#1e293b" font-family="Microsoft YaHei, sans-serif" font-size="14" text-anchor="middle">503 NO_LOGIN_NODE</text><line x1="8" y1="660" x2="8" y2="1008" stroke="#64748b" stroke-width="2" /><line x1="1092" y1="660" x2="1092" y2="1008" stroke="#64748b" stroke-width="2" /><line x1="8" y1="1008" x2="1092" y2="1008" stroke="#64748b" stroke-width="2" /></svg>