<?xml version='1.0' encoding='utf-8'?>
<svg xmlns="http://www.w3.org/2000/svg" width="1560" height="1806" viewBox="0 0 1560 1806"><text x="35" y="46" fill="#1e293b" font-family="Microsoft YaHei, sans-serif" font-size="26" text-anchor="start">视频采集预览时序图</text><rect x="18.0" y="80" width="224" height="55" fill="#e0f2fe" stroke="#334155" stroke-width="2" /><text x="130.0" y="113" fill="#1e293b" font-family="Microsoft YaHei, sans-serif" font-size="17" text-anchor="middle">用户</text><line x1="130.0" y1="135" x2="130.0" y2="1771" stroke="#64748b" stroke-width="2" stroke-dasharray="7 5" /><rect x="278.0" y="80" width="224" height="55" fill="#e0f2fe" stroke="#334155" stroke-width="2" /><text x="390.0" y="113" fill="#1e293b" font-family="Microsoft YaHei, sans-serif" font-size="17" text-anchor="middle">MainWindow</text><line x1="390.0" y1="135" x2="390.0" y2="1771" stroke="#64748b" stroke-width="2" stroke-dasharray="7 5" /><rect x="538.0" y="80" width="224" height="55" fill="#e0f2fe" stroke="#334155" stroke-width="2" /><text x="650.0" y="113" fill="#1e293b" font-family="Microsoft YaHei, sans-serif" font-size="17" text-anchor="middle">SessionController</text><line x1="650.0" y1="135" x2="650.0" y2="1771" stroke="#64748b" stroke-width="2" stroke-dasharray="7 5" /><rect x="798.0" y="80" width="224" height="55" fill="#e0f2fe" stroke="#334155" stroke-width="2" /><text x="910.0" y="113" fill="#1e293b" font-family="Microsoft YaHei, sans-serif" font-size="17" text-anchor="middle">VideoCapture工作线程</text><line x1="910.0" y1="135" x2="910.0" y2="1771" stroke="#64748b" stroke-width="2" stroke-dasharray="7 5" /><rect x="1058.0" y="80" width="224" height="55" fill="#e0f2fe" stroke="#334155" stroke-width="2" /><text x="1170.0" y="113" fill="#1e293b" font-family="Microsoft YaHei, sans-serif" font-size="17" text-anchor="middle">Windows采集源</text><line x1="1170.0" y1="135" x2="1170.0" y2="1771" stroke="#64748b" stroke-width="2" stroke-dasharray="7 5" /><rect x="1318.0" y="80" width="224" height="55" fill="#e0f2fe" stroke="#334155" stroke-width="2" /><text x="1430.0" y="113" fill="#1e293b" font-family="Microsoft YaHei, sans-serif" font-size="17" text-anchor="middle">D3D11</text><line x1="1430.0" y1="135" x2="1430.0" y2="1771" stroke="#64748b" stroke-width="2" stroke-dasharray="7 5" /><line x1="130.0" y1="175" x2="390.0" y2="175" stroke="#64748b" stroke-width="2" /><line x1="390.0" y1="175" x2="377.0" y2="182.0" stroke="#64748b" stroke-width="2" /><line x1="390.0" y1="175" x2="377.0" y2="168.0" stroke="#64748b" stroke-width="2" /><text x="260.0" y="164" fill="#1e293b" font-family="Microsoft YaHei, sans-serif" font-size="14" text-anchor="middle">选择摄像头或窗口/屏幕，开始采集</text><line x1="390.0" y1="232" x2="650.0" y2="232" stroke="#64748b" stroke-width="2" stroke-dasharray="7 5" /><line x1="650.0" y1="232" x2="637.0" y2="239.0" stroke="#64748b" stroke-width="2" /><line x1="650.0" y1="232" x2="637.0" y2="225.0" stroke="#64748b" stroke-width="2" /><text x="520.0" y="221" fill="#1e293b" font-family="Microsoft YaHei, sans-serif" font-size="14" text-anchor="middle">captureRequested</text><line x1="650.0" y1="289" x2="740.0" y2="289" stroke="#64748b" stroke-width="2" /><line x1="740.0" y1="289" x2="740.0" y2="307" stroke="#64748b" stroke-width="2" /><line x1="740.0" y1="307" x2="650.0" y2="307" stroke="#64748b" stroke-width="2" /><line x1="650.0" y1="307" x2="663.0" y2="300.0" stroke="#64748b" stroke-width="2" /><line x1="650.0" y1="307" x2="663.0" y2="314.0" stroke="#64748b" stroke-width="2" /><text x="658.0" y="278" fill="#1e293b" font-family="Microsoft YaHei, sans-serif" font-size="14" text-anchor="start">检查登录、枚举及未完成启停</text><line x1="650.0" y1="346" x2="910.0" y2="346" stroke="#64748b" stroke-width="2" /><line x1="910.0" y1="346" x2="897.0" y2="353.0" stroke="#64748b" stroke-width="2" /><line x1="910.0" y1="346" x2="897.0" y2="339.0" stroke="#64748b" stroke-width="2" /><text x="780.0" y="335" fill="#1e293b" font-family="Microsoft YaHei, sans-serif" font-size="14" text-anchor="middle">begin(source)</text><line x1="910.0" y1="403" x2="1000.0" y2="403" stroke="#64748b" stroke-width="2" /><line x1="1000.0" y1="403" x2="1000.0" y2="421" stroke="#64748b" stroke-width="2" /><line x1="1000.0" y1="421" x2="910.0" y2="421" stroke="#64748b" stroke-width="2" /><line x1="910.0" y1="421" x2="923.0" y2="414.0" stroke="#64748b" stroke-width="2" /><line x1="910.0" y1="421" x2="923.0" y2="428.0" stroke="#64748b" stroke-width="2" /><text x="918.0" y="392" fill="#1e293b" font-family="Microsoft YaHei, sans-serif" font-size="14" text-anchor="start">初始化 MTA；检查目标有效性</text><text x="14" y="451" fill="#1e293b" font-family="Microsoft YaHei, sans-serif" font-size="14" text-anchor="start">[alt] 摄像头</text><line x1="8" y1="432" x2="1552" y2="432" stroke="#64748b" stroke-width="2" /><line x1="910.0" y1="517" x2="1170.0" y2="517" stroke="#64748b" stroke-width="2" /><line x1="1170.0" y1="517" x2="1157.0" y2="524.0" stroke="#64748b" stroke-width="2" /><line x1="1170.0" y1="517" x2="1157.0" y2="510.0" stroke="#64748b" stroke-width="2" /><text x="1040.0" y="506" fill="#1e293b" font-family="Microsoft YaHei, sans-serif" font-size="14" text-anchor="middle">MediaCapture.InitializeAsync / BGRA8 FrameReader.StartAsync</text><line x1="8" y1="546" x2="1552" y2="546" stroke="#64748b" stroke-width="2" stroke-dasharray="7 5" /><text x="14" y="565" fill="#1e293b" font-family="Microsoft YaHei, sans-serif" font-size="14" text-anchor="start">[else] 窗口或屏幕</text><line x1="910.0" y1="631" x2="1170.0" y2="631" stroke="#64748b" stroke-width="2" /><line x1="1170.0" y1="631" x2="1157.0" y2="638.0" stroke="#64748b" stroke-width="2" /><line x1="1170.0" y1="631" x2="1157.0" y2="624.0" stroke="#64748b" stroke-width="2" /><text x="1040.0" y="620" fill="#1e293b" font-family="Microsoft YaHei, sans-serif" font-size="14" text-anchor="middle">CreateForWindow/Monitor / CreateFreeThreaded / StartCapture</text><line x1="8" y1="432" x2="8" y2="666" stroke="#64748b" stroke-width="2" /><line x1="1552" y1="432" x2="1552" y2="666" stroke="#64748b" stroke-width="2" /><line x1="8" y1="666" x2="1552" y2="666" stroke="#64748b" stroke-width="2" /><line x1="910.0" y1="745" x2="650.0" y2="745" stroke="#64748b" stroke-width="2" stroke-dasharray="7 5" /><line x1="650.0" y1="745" x2="663.0" y2="738.0" stroke="#64748b" stroke-width="2" /><line x1="650.0" y1="745" x2="663.0" y2="752.0" stroke="#64748b" stroke-width="2" /><text x="780.0" y="734" fill="#1e293b" font-family="Microsoft YaHei, sans-serif" font-size="14" text-anchor="middle">opened 或 failed</text><line x1="910.0" y1="802" x2="1170.0" y2="802" stroke="#64748b" stroke-width="2" /><line x1="1170.0" y1="802" x2="1157.0" y2="809.0" stroke="#64748b" stroke-width="2" /><line x1="1170.0" y1="802" x2="1157.0" y2="795.0" stroke="#64748b" stroke-width="2" /><text x="1040.0" y="791" fill="#1e293b" font-family="Microsoft YaHei, sans-serif" font-size="14" text-anchor="middle">TryAcquireLatestFrame 或 TryGetNextFrame</text><line x1="1170.0" y1="859" x2="910.0" y2="859" stroke="#64748b" stroke-width="2" stroke-dasharray="7 5" /><line x1="910.0" y1="859" x2="923.0" y2="852.0" stroke="#64748b" stroke-width="2" /><line x1="910.0" y1="859" x2="923.0" y2="866.0" stroke="#64748b" stroke-width="2" /><text x="1040.0" y="848" fill="#1e293b" font-family="Microsoft YaHei, sans-serif" font-size="14" text-anchor="middle">GPU surface 或 SoftwareBitmap</text><line x1="910.0" y1="916" x2="1430.0" y2="916" stroke="#64748b" stroke-width="2" /><line x1="1430.0" y1="916" x2="1417.0" y2="923.0" stroke="#64748b" stroke-width="2" /><line x1="1430.0" y1="916" x2="1417.0" y2="909.0" stroke="#64748b" stroke-width="2" /><text x="1170.0" y="905" fill="#1e293b" font-family="Microsoft YaHei, sans-serif" font-size="14" text-anchor="middle">GPU复制独立纹理；CPU位图才上传</text><line x1="910.0" y1="973" x2="1430.0" y2="973" stroke="#64748b" stroke-width="2" /><line x1="1430.0" y1="973" x2="1417.0" y2="980.0" stroke="#64748b" stroke-width="2" /><line x1="1430.0" y1="973" x2="1417.0" y2="966.0" stroke="#64748b" stroke-width="2" /><text x="1170.0" y="962" fill="#1e293b" font-family="Microsoft YaHei, sans-serif" font-size="14" text-anchor="middle">Flush提交复制，不依赖SwapChain Present</text><line x1="910.0" y1="1030" x2="1430.0" y2="1030" stroke="#64748b" stroke-width="2" /><line x1="1430.0" y1="1030" x2="1417.0" y2="1037.0" stroke="#64748b" stroke-width="2" /><line x1="1430.0" y1="1030" x2="1417.0" y2="1023.0" stroke="#64748b" stroke-width="2" /><text x="1170.0" y="1019" fill="#1e293b" font-family="Microsoft YaHei, sans-serif" font-size="14" text-anchor="middle">最多10fps读回预览，缩放到960×540以内</text><line x1="910.0" y1="1087" x2="1000.0" y2="1087" stroke="#64748b" stroke-width="2" /><line x1="1000.0" y1="1087" x2="1000.0" y2="1105" stroke="#64748b" stroke-width="2" /><line x1="1000.0" y1="1105" x2="910.0" y2="1105" stroke="#64748b" stroke-width="2" /><line x1="910.0" y1="1105" x2="923.0" y2="1098.0" stroke="#64748b" stroke-width="2" /><line x1="910.0" y1="1105" x2="923.0" y2="1112.0" stroke="#64748b" stroke-width="2" /><text x="918.0" y="1076" fill="#1e293b" font-family="Microsoft YaHei, sans-serif" font-size="14" text-anchor="start">更新单帧邮箱和QPC时间戳</text><line x1="650.0" y1="1144" x2="910.0" y2="1144" stroke="#64748b" stroke-width="2" /><line x1="910.0" y1="1144" x2="897.0" y2="1151.0" stroke="#64748b" stroke-width="2" /><line x1="910.0" y1="1144" x2="897.0" y2="1137.0" stroke="#64748b" stroke-width="2" /><text x="780.0" y="1133" fill="#1e293b" font-family="Microsoft YaHei, sans-serif" font-size="14" text-anchor="middle">每33ms取 latestFrame</text><line x1="650.0" y1="1201" x2="740.0" y2="1201" stroke="#64748b" stroke-width="2" /><line x1="740.0" y1="1201" x2="740.0" y2="1219" stroke="#64748b" stroke-width="2" /><line x1="740.0" y1="1219" x2="650.0" y2="1219" stroke="#64748b" stroke-width="2" stroke-dasharray="7 5" /><line x1="650.0" y1="1219" x2="663.0" y2="1212.0" stroke="#64748b" stroke-width="2" /><line x1="650.0" y1="1219" x2="663.0" y2="1226.0" stroke="#64748b" stroke-width="2" /><text x="658.0" y="1190" fill="#1e293b" font-family="Microsoft YaHei, sans-serif" font-size="14" text-anchor="start">videoFrameReady，后续接特效/编码</text><line x1="650.0" y1="1258" x2="390.0" y2="1258" stroke="#64748b" stroke-width="2" /><line x1="390.0" y1="1258" x2="403.0" y2="1251.0" stroke="#64748b" stroke-width="2" /><line x1="390.0" y1="1258" x2="403.0" y2="1265.0" stroke="#64748b" stroke-width="2" /><text x="520.0" y="1247" fill="#1e293b" font-family="Microsoft YaHei, sans-serif" font-size="14" text-anchor="middle">显示最新预览</text><text x="14" y="1306" fill="#1e293b" font-family="Microsoft YaHei, sans-serif" font-size="14" text-anchor="start">[alt] WGC目标尺寸变化</text><line x1="8" y1="1287" x2="1552" y2="1287" stroke="#64748b" stroke-width="2" /><line x1="910.0" y1="1372" x2="1170.0" y2="1372" stroke="#64748b" stroke-width="2" /><line x1="1170.0" y1="1372" x2="1157.0" y2="1379.0" stroke="#64748b" stroke-width="2" /><line x1="1170.0" y1="1372" x2="1157.0" y2="1365.0" stroke="#64748b" stroke-width="2" /><text x="1040.0" y="1361" fill="#1e293b" font-family="Microsoft YaHei, sans-serif" font-size="14" text-anchor="middle">释放旧帧后 Recreate 帧池</text><line x1="8" y1="1401" x2="1552" y2="1401" stroke="#64748b" stroke-width="2" stroke-dasharray="7 5" /><text x="14" y="1420" fill="#1e293b" font-family="Microsoft YaHei, sans-serif" font-size="14" text-anchor="start">[else] 目标关闭或摄像头失败</text><line x1="1170.0" y1="1486" x2="910.0" y2="1486" stroke="#64748b" stroke-width="2" stroke-dasharray="7 5" /><line x1="910.0" y1="1486" x2="923.0" y2="1479.0" stroke="#64748b" stroke-width="2" /><line x1="910.0" y1="1486" x2="923.0" y2="1493.0" stroke="#64748b" stroke-width="2" /><text x="1040.0" y="1475" fill="#1e293b" font-family="Microsoft YaHei, sans-serif" font-size="14" text-anchor="middle">Closed/Failed事件</text><line x1="910.0" y1="1543" x2="650.0" y2="1543" stroke="#64748b" stroke-width="2" stroke-dasharray="7 5" /><line x1="650.0" y1="1543" x2="663.0" y2="1536.0" stroke="#64748b" stroke-width="2" /><line x1="650.0" y1="1543" x2="663.0" y2="1550.0" stroke="#64748b" stroke-width="2" /><text x="780.0" y="1532" fill="#1e293b" font-family="Microsoft YaHei, sans-serif" font-size="14" text-anchor="middle">failed 后 finished</text><line x1="650.0" y1="1600" x2="390.0" y2="1600" stroke="#64748b" stroke-width="2" /><line x1="390.0" y1="1600" x2="403.0" y2="1593.0" stroke="#64748b" stroke-width="2" /><line x1="390.0" y1="1600" x2="403.0" y2="1607.0" stroke="#64748b" stroke-width="2" /><text x="520.0" y="1589" fill="#1e293b" font-family="Microsoft YaHei, sans-serif" font-size="14" text-anchor="middle">错误说明并允许重新选择</text><line x1="8" y1="1287" x2="8" y2="1635" stroke="#64748b" stroke-width="2" /><line x1="1552" y1="1287" x2="1552" y2="1635" stroke="#64748b" stroke-width="2" /><line x1="8" y1="1635" x2="1552" y2="1635" stroke="#64748b" stroke-width="2" /><rect x="971.5" y="1687" width="397.0" height="40" fill="#fef9c3" stroke="#334155" stroke-width="2" /><text x="1170.0" y="1709" fill="#1e293b" font-family="Microsoft YaHei, sans-serif" font-size="13" text-anchor="middle">GPU快照独立持有，系统采集池不会复用；预览目前含CPU读回</text></svg>