<?xml version='1.0' encoding='utf-8'?>
<svg xmlns="http://www.w3.org/2000/svg" width="2860" height="2319" viewBox="0 0 2860 2319"><text x="35" y="46" fill="#1e293b" font-family="Microsoft YaHei, sans-serif" font-size="26" text-anchor="start">采集停止清理时序图</text><rect x="18.0" y="80" width="224" height="55" fill="#e0f2fe" stroke="#334155" stroke-width="2" /><text x="130.0" y="113" fill="#1e293b" font-family="Microsoft YaHei, sans-serif" font-size="17" text-anchor="middle">用户</text><line x1="130.0" y1="135" x2="130.0" y2="2284" stroke="#64748b" stroke-width="2" stroke-dasharray="7 5" /><rect x="278.0" y="80" width="224" height="55" fill="#e0f2fe" stroke="#334155" stroke-width="2" /><text x="390.0" y="113" fill="#1e293b" font-family="Microsoft YaHei, sans-serif" font-size="17" text-anchor="middle">MainWindow</text><line x1="390.0" y1="135" x2="390.0" y2="2284" stroke="#64748b" stroke-width="2" stroke-dasharray="7 5" /><rect x="538.0" y="80" width="224" height="55" fill="#e0f2fe" stroke="#334155" stroke-width="2" /><text x="650.0" y="113" fill="#1e293b" font-family="Microsoft YaHei, sans-serif" font-size="17" text-anchor="middle">PreviewWindow</text><line x1="650.0" y1="135" x2="650.0" y2="2284" stroke="#64748b" stroke-width="2" stroke-dasharray="7 5" /><rect x="798.0" y="80" width="224" height="55" fill="#e0f2fe" stroke="#334155" stroke-width="2" /><text x="910.0" y="113" fill="#1e293b" font-family="Microsoft YaHei, sans-serif" font-size="17" text-anchor="middle">VideoRenderer</text><line x1="910.0" y1="135" x2="910.0" y2="2284" stroke="#64748b" stroke-width="2" stroke-dasharray="7 5" /><rect x="1058.0" y="80" width="224" height="55" fill="#e0f2fe" stroke="#334155" stroke-width="2" /><text x="1170.0" y="113" fill="#1e293b" font-family="Microsoft YaHei, sans-serif" font-size="17" text-anchor="middle">SessionController</text><line x1="1170.0" y1="135" x2="1170.0" y2="2284" stroke="#64748b" stroke-width="2" stroke-dasharray="7 5" /><rect x="1318.0" y="80" width="224" height="55" fill="#e0f2fe" stroke="#334155" stroke-width="2" /><text x="1430.0" y="113" fill="#1e293b" font-family="Microsoft YaHei, sans-serif" font-size="17" text-anchor="middle">三个采集工作线程</text><line x1="1430.0" y1="135" x2="1430.0" y2="2284" stroke="#64748b" stroke-width="2" stroke-dasharray="7 5" /><rect x="1578.0" y="80" width="224" height="55" fill="#e0f2fe" stroke="#334155" stroke-width="2" /><text x="1690.0" y="113" fill="#1e293b" font-family="Microsoft YaHei, sans-serif" font-size="17" text-anchor="middle">Windows采集资源</text><line x1="1690.0" y1="135" x2="1690.0" y2="2284" stroke="#64748b" stroke-width="2" stroke-dasharray="7 5" /><rect x="1838.0" y="80" width="224" height="55" fill="#e0f2fe" stroke="#334155" stroke-width="2" /><text x="1950.0" y="113" fill="#1e293b" font-family="Microsoft YaHei, sans-serif" font-size="17" text-anchor="middle">AudioMixer</text><line x1="1950.0" y1="135" x2="1950.0" y2="2284" stroke="#64748b" stroke-width="2" stroke-dasharray="7 5" /><rect x="2098.0" y="80" width="224" height="55" fill="#e0f2fe" stroke="#334155" stroke-width="2" /><text x="2210.0" y="113" fill="#1e293b" font-family="Microsoft YaHei, sans-serif" font-size="17" text-anchor="middle">GpuFaceDetector线程</text><line x1="2210.0" y1="135" x2="2210.0" y2="2284" stroke="#64748b" stroke-width="2" stroke-dasharray="7 5" /><rect x="2358.0" y="80" width="224" height="55" fill="#e0f2fe" stroke="#334155" stroke-width="2" /><text x="2470.0" y="113" fill="#1e293b" font-family="Microsoft YaHei, sans-serif" font-size="17" text-anchor="middle">CUDA资源</text><line x1="2470.0" y1="135" x2="2470.0" y2="2284" stroke="#64748b" stroke-width="2" stroke-dasharray="7 5" /><rect x="2618.0" y="80" width="224" height="55" fill="#e0f2fe" stroke="#334155" stroke-width="2" /><text x="2730.0" y="113" fill="#1e293b" font-family="Microsoft YaHei, sans-serif" font-size="17" text-anchor="middle">MediaTimeline</text><line x1="2730.0" y1="135" x2="2730.0" y2="2284" stroke="#64748b" stroke-width="2" stroke-dasharray="7 5" /><line x1="130.0" y1="175" x2="390.0" y2="175" stroke="#64748b" stroke-width="2" /><line x1="390.0" y1="175" x2="377.0" y2="182.0" stroke="#64748b" stroke-width="2" /><line x1="390.0" y1="175" x2="377.0" y2="168.0" stroke="#64748b" stroke-width="2" /><text x="260.0" y="164" fill="#1e293b" font-family="Microsoft YaHei, sans-serif" font-size="14" text-anchor="middle">停止采集或退出登录</text><line x1="390.0" y1="232" x2="1170.0" y2="232" stroke="#64748b" stroke-width="2" stroke-dasharray="7 5" /><line x1="1170.0" y1="232" x2="1157.0" y2="239.0" stroke="#64748b" stroke-width="2" /><line x1="1170.0" y1="232" x2="1157.0" y2="225.0" stroke="#64748b" stroke-width="2" /><text x="780.0" y="221" fill="#1e293b" font-family="Microsoft YaHei, sans-serif" font-size="14" text-anchor="middle">stopCaptureRequested 或登录状态变化</text><line x1="1170.0" y1="289" x2="1260.0" y2="289" stroke="#64748b" stroke-width="2" /><line x1="1260.0" y1="289" x2="1260.0" y2="307" stroke="#64748b" stroke-width="2" /><line x1="1260.0" y1="307" x2="1170.0" y2="307" stroke="#64748b" stroke-width="2" /><line x1="1170.0" y1="307" x2="1183.0" y2="300.0" stroke="#64748b" stroke-width="2" /><line x1="1170.0" y1="307" x2="1183.0" y2="314.0" stroke="#64748b" stroke-width="2" /><text x="1178.0" y="278" fill="#1e293b" font-family="Microsoft YaHei, sans-serif" font-size="14" text-anchor="start">停止视频/普通音频交付，清空预览</text><line x1="1170.0" y1="346" x2="1430.0" y2="346" stroke="#64748b" stroke-width="2" /><line x1="1430.0" y1="346" x2="1417.0" y2="353.0" stroke="#64748b" stroke-width="2" /><line x1="1430.0" y1="346" x2="1417.0" y2="339.0" stroke="#64748b" stroke-width="2" /><text x="1300.0" y="335" fill="#1e293b" font-family="Microsoft YaHei, sans-serif" font-size="14" text-anchor="middle">stop / requestInterruption</text><line x1="1170.0" y1="403" x2="2210.0" y2="403" stroke="#64748b" stroke-width="2" /><line x1="2210.0" y1="403" x2="2197.0" y2="410.0" stroke="#64748b" stroke-width="2" /><line x1="2210.0" y1="403" x2="2197.0" y2="396.0" stroke="#64748b" stroke-width="2" /><text x="1690.0" y="392" fill="#1e293b" font-family="Microsoft YaHei, sans-serif" font-size="14" text-anchor="middle">stop，清空输入/结果并唤醒</text><line x1="1170.0" y1="460" x2="390.0" y2="460" stroke="#64748b" stroke-width="2" /><line x1="390.0" y1="460" x2="403.0" y2="453.0" stroke="#64748b" stroke-width="2" /><line x1="390.0" y1="460" x2="403.0" y2="467.0" stroke="#64748b" stroke-width="2" /><text x="780.0" y="449" fill="#1e293b" font-family="Microsoft YaHei, sans-serif" font-size="14" text-anchor="middle">显示正在停止，禁用重新启动</text><line x1="390.0" y1="517" x2="650.0" y2="517" stroke="#64748b" stroke-width="2" /><line x1="650.0" y1="517" x2="637.0" y2="524.0" stroke="#64748b" stroke-width="2" /><line x1="650.0" y1="517" x2="637.0" y2="510.0" stroke="#64748b" stroke-width="2" /><text x="520.0" y="506" fill="#1e293b" font-family="Microsoft YaHei, sans-serif" font-size="14" text-anchor="middle">清空画面并隐藏独立窗口</text><line x1="650.0" y1="574" x2="910.0" y2="574" stroke="#64748b" stroke-width="2" /><line x1="910.0" y1="574" x2="897.0" y2="581.0" stroke="#64748b" stroke-width="2" /><line x1="910.0" y1="574" x2="897.0" y2="567.0" stroke="#64748b" stroke-width="2" /><text x="780.0" y="563" fill="#1e293b" font-family="Microsoft YaHei, sans-serif" font-size="14" text-anchor="middle">clear，释放SRV/RTV/SwapChain和帧引用</text><text x="14" y="622" fill="#1e293b" font-family="Microsoft YaHei, sans-serif" font-size="14" text-anchor="start">[alt] 退出登录或登录失效</text><line x1="8" y1="603" x2="2852" y2="603" stroke="#64748b" stroke-width="2" /><line x1="1170.0" y1="688" x2="1950.0" y2="688" stroke="#64748b" stroke-width="2" /><line x1="1950.0" y1="688" x2="1937.0" y2="695.0" stroke="#64748b" stroke-width="2" /><line x1="1950.0" y1="688" x2="1937.0" y2="681.0" stroke="#64748b" stroke-width="2" /><text x="1560.0" y="677" fill="#1e293b" font-family="Microsoft YaHei, sans-serif" font-size="14" text-anchor="middle">clear，立即丢弃缓存与滤波尾部</text><line x1="1170.0" y1="745" x2="2730.0" y2="745" stroke="#64748b" stroke-width="2" /><line x1="2730.0" y1="745" x2="2717.0" y2="752.0" stroke="#64748b" stroke-width="2" /><line x1="2730.0" y1="745" x2="2717.0" y2="738.0" stroke="#64748b" stroke-width="2" /><text x="1950.0" y="734" fill="#1e293b" font-family="Microsoft YaHei, sans-serif" font-size="14" text-anchor="middle">clear，立即丢弃同步队列和纹理</text><line x1="8" y1="774" x2="2852" y2="774" stroke="#64748b" stroke-width="2" stroke-dasharray="7 5" /><text x="14" y="793" fill="#1e293b" font-family="Microsoft YaHei, sans-serif" font-size="14" text-anchor="start">[else] 普通停止</text><line x1="1170.0" y1="859" x2="1260.0" y2="859" stroke="#64748b" stroke-width="2" /><line x1="1260.0" y1="859" x2="1260.0" y2="877" stroke="#64748b" stroke-width="2" /><line x1="1260.0" y1="877" x2="1170.0" y2="877" stroke="#64748b" stroke-width="2" /><line x1="1170.0" y1="877" x2="1183.0" y2="870.0" stroke="#64748b" stroke-width="2" /><line x1="1170.0" y1="877" x2="1183.0" y2="884.0" stroke="#64748b" stroke-width="2" /><text x="1178.0" y="848" fill="#1e293b" font-family="Microsoft YaHei, sans-serif" font-size="14" text-anchor="start">保留音频尾部，等线程结束后排空</text><line x1="8" y1="603" x2="8" y2="894" stroke="#64748b" stroke-width="2" /><line x1="2852" y1="603" x2="2852" y2="894" stroke="#64748b" stroke-width="2" /><line x1="8" y1="894" x2="2852" y2="894" stroke="#64748b" stroke-width="2" /><line x1="1430.0" y1="973" x2="1520.0" y2="973" stroke="#64748b" stroke-width="2" /><line x1="1520.0" y1="973" x2="1520.0" y2="991" stroke="#64748b" stroke-width="2" /><line x1="1520.0" y1="991" x2="1430.0" y2="991" stroke="#64748b" stroke-width="2" /><line x1="1430.0" y1="991" x2="1443.0" y2="984.0" stroke="#64748b" stroke-width="2" /><line x1="1430.0" y1="991" x2="1443.0" y2="998.0" stroke="#64748b" stroke-width="2" /><text x="1438.0" y="962" fill="#1e293b" font-family="Microsoft YaHei, sans-serif" font-size="14" text-anchor="start">初始化等待或采集轮询检查停止标志</text><line x1="1430.0" y1="1030" x2="1690.0" y2="1030" stroke="#64748b" stroke-width="2" /><line x1="1690.0" y1="1030" x2="1677.0" y2="1037.0" stroke="#64748b" stroke-width="2" /><line x1="1690.0" y1="1030" x2="1677.0" y2="1023.0" stroke="#64748b" stroke-width="2" /><text x="1560.0" y="1019" fill="#1e293b" font-family="Microsoft YaHei, sans-serif" font-size="14" text-anchor="middle">停止及关闭Reader/Session/FramePool/AudioClient</text><line x1="1430.0" y1="1087" x2="1520.0" y2="1087" stroke="#64748b" stroke-width="2" /><line x1="1520.0" y1="1087" x2="1520.0" y2="1105" stroke="#64748b" stroke-width="2" /><line x1="1520.0" y1="1105" x2="1430.0" y2="1105" stroke="#64748b" stroke-width="2" /><line x1="1430.0" y1="1105" x2="1443.0" y2="1098.0" stroke="#64748b" stroke-width="2" /><line x1="1430.0" y1="1105" x2="1443.0" y2="1112.0" stroke="#64748b" stroke-width="2" /><text x="1438.0" y="1076" fill="#1e293b" font-family="Microsoft YaHei, sans-serif" font-size="14" text-anchor="start">释放COM资源后反初始化MTA</text><line x1="1430.0" y1="1144" x2="1170.0" y2="1144" stroke="#64748b" stroke-width="2" stroke-dasharray="7 5" /><line x1="1170.0" y1="1144" x2="1183.0" y2="1137.0" stroke="#64748b" stroke-width="2" /><line x1="1170.0" y1="1144" x2="1183.0" y2="1151.0" stroke="#64748b" stroke-width="2" /><text x="1300.0" y="1133" fill="#1e293b" font-family="Microsoft YaHei, sans-serif" font-size="14" text-anchor="middle">finished</text><line x1="1170.0" y1="1201" x2="1260.0" y2="1201" stroke="#64748b" stroke-width="2" /><line x1="1260.0" y1="1201" x2="1260.0" y2="1219" stroke="#64748b" stroke-width="2" /><line x1="1260.0" y1="1219" x2="1170.0" y2="1219" stroke="#64748b" stroke-width="2" /><line x1="1170.0" y1="1219" x2="1183.0" y2="1212.0" stroke="#64748b" stroke-width="2" /><line x1="1170.0" y1="1219" x2="1183.0" y2="1226.0" stroke="#64748b" stroke-width="2" /><text x="1178.0" y="1190" fill="#1e293b" font-family="Microsoft YaHei, sans-serif" font-size="14" text-anchor="start">取走最后采集包，再移除未完成线程</text><text x="14" y="1249" fill="#1e293b" font-family="Microsoft YaHei, sans-serif" font-size="14" text-anchor="start">[alt] 普通停止且两路音频均退出</text><line x1="8" y1="1230" x2="2852" y2="1230" stroke="#64748b" stroke-width="2" /><line x1="1170.0" y1="1315" x2="1950.0" y2="1315" stroke="#64748b" stroke-width="2" /><line x1="1950.0" y1="1315" x2="1937.0" y2="1322.0" stroke="#64748b" stroke-width="2" /><line x1="1950.0" y1="1315" x2="1937.0" y2="1308.0" stroke="#64748b" stroke-width="2" /><text x="1560.0" y="1304" fill="#1e293b" font-family="Microsoft YaHei, sans-serif" font-size="14" text-anchor="middle">finish，排空重采样尾部和最后补零包</text><line x1="1950.0" y1="1372" x2="1170.0" y2="1372" stroke="#64748b" stroke-width="2" stroke-dasharray="7 5" /><line x1="1170.0" y1="1372" x2="1183.0" y2="1365.0" stroke="#64748b" stroke-width="2" /><line x1="1170.0" y1="1372" x2="1183.0" y2="1379.0" stroke="#64748b" stroke-width="2" /><text x="1560.0" y="1361" fill="#1e293b" font-family="Microsoft YaHei, sans-serif" font-size="14" text-anchor="middle">最后的固定10ms输出</text><line x1="1170.0" y1="1429" x2="1260.0" y2="1429" stroke="#64748b" stroke-width="2" /><line x1="1260.0" y1="1429" x2="1260.0" y2="1447" stroke="#64748b" stroke-width="2" /><line x1="1260.0" y1="1447" x2="1170.0" y2="1447" stroke="#64748b" stroke-width="2" /><line x1="1170.0" y1="1447" x2="1183.0" y2="1440.0" stroke="#64748b" stroke-width="2" /><line x1="1170.0" y1="1447" x2="1183.0" y2="1454.0" stroke="#64748b" stroke-width="2" /><text x="1178.0" y="1418" fill="#1e293b" font-family="Microsoft YaHei, sans-serif" font-size="14" text-anchor="start">emit mixedAudioReady</text><line x1="1170.0" y1="1486" x2="2730.0" y2="1486" stroke="#64748b" stroke-width="2" /><line x1="2730.0" y1="1486" x2="2717.0" y2="1493.0" stroke="#64748b" stroke-width="2" /><line x1="2730.0" y1="1486" x2="2717.0" y2="1479.0" stroke="#64748b" stroke-width="2" /><text x="1950.0" y="1475" fill="#1e293b" font-family="Microsoft YaHei, sans-serif" font-size="14" text-anchor="middle">pushAudio尾部，尚不恢复普通交付</text><line x1="8" y1="1515" x2="2852" y2="1515" stroke="#64748b" stroke-width="2" stroke-dasharray="7 5" /><text x="14" y="1534" fill="#1e293b" font-family="Microsoft YaHei, sans-serif" font-size="14" text-anchor="start">[else] 已退出登录</text><line x1="1170.0" y1="1600" x2="1260.0" y2="1600" stroke="#64748b" stroke-width="2" /><line x1="1260.0" y1="1600" x2="1260.0" y2="1618" stroke="#64748b" stroke-width="2" /><line x1="1260.0" y1="1618" x2="1170.0" y2="1618" stroke="#64748b" stroke-width="2" /><line x1="1170.0" y1="1618" x2="1183.0" y2="1611.0" stroke="#64748b" stroke-width="2" /><line x1="1170.0" y1="1618" x2="1183.0" y2="1625.0" stroke="#64748b" stroke-width="2" /><text x="1178.0" y="1589" fill="#1e293b" font-family="Microsoft YaHei, sans-serif" font-size="14" text-anchor="start">丢弃迟到包，不交付混音</text><line x1="8" y1="1230" x2="8" y2="1635" stroke="#64748b" stroke-width="2" /><line x1="2852" y1="1230" x2="2852" y2="1635" stroke="#64748b" stroke-width="2" /><line x1="8" y1="1635" x2="2852" y2="1635" stroke="#64748b" stroke-width="2" /><line x1="1170.0" y1="1714" x2="390.0" y2="1714" stroke="#64748b" stroke-width="2" /><line x1="390.0" y1="1714" x2="403.0" y2="1707.0" stroke="#64748b" stroke-width="2" /><line x1="390.0" y1="1714" x2="403.0" y2="1721.0" stroke="#64748b" stroke-width="2" /><text x="780.0" y="1703" fill="#1e293b" font-family="Microsoft YaHei, sans-serif" font-size="14" text-anchor="middle">采集已退出，等待检测线程清理</text><line x1="2210.0" y1="1771" x2="2300.0" y2="1771" stroke="#64748b" stroke-width="2" /><line x1="2300.0" y1="1771" x2="2300.0" y2="1789" stroke="#64748b" stroke-width="2" /><line x1="2300.0" y1="1789" x2="2210.0" y2="1789" stroke="#64748b" stroke-width="2" /><line x1="2210.0" y1="1789" x2="2223.0" y2="1782.0" stroke="#64748b" stroke-width="2" /><line x1="2210.0" y1="1789" x2="2223.0" y2="1796.0" stroke="#64748b" stroke-width="2" /><text x="2218.0" y="1760" fill="#1e293b" font-family="Microsoft YaHei, sans-serif" font-size="14" text-anchor="start">已提交GPU任务完成后丢弃迟到结果</text><line x1="2210.0" y1="1828" x2="2470.0" y2="1828" stroke="#64748b" stroke-width="2" /><line x1="2470.0" y1="1828" x2="2457.0" y2="1835.0" stroke="#64748b" stroke-width="2" /><line x1="2470.0" y1="1828" x2="2457.0" y2="1821.0" stroke="#64748b" stroke-width="2" /><text x="2340.0" y="1817" fill="#1e293b" font-family="Microsoft YaHei, sans-serif" font-size="14" text-anchor="middle">同步、注销中间纹理、释放推理和显存资源</text><line x1="2210.0" y1="1885" x2="1170.0" y2="1885" stroke="#64748b" stroke-width="2" stroke-dasharray="7 5" /><line x1="1170.0" y1="1885" x2="1183.0" y2="1878.0" stroke="#64748b" stroke-width="2" /><line x1="1170.0" y1="1885" x2="1183.0" y2="1892.0" stroke="#64748b" stroke-width="2" /><text x="1690.0" y="1874" fill="#1e293b" font-family="Microsoft YaHei, sans-serif" font-size="14" text-anchor="middle">finished，移除未完成线程</text><line x1="1170.0" y1="1942" x2="2730.0" y2="1942" stroke="#64748b" stroke-width="2" /><line x1="2730.0" y1="1942" x2="2717.0" y2="1949.0" stroke="#64748b" stroke-width="2" /><line x1="2730.0" y1="1942" x2="2717.0" y2="1935.0" stroke="#64748b" stroke-width="2" /><text x="1950.0" y="1931" fill="#1e293b" font-family="Microsoft YaHei, sans-serif" font-size="14" text-anchor="middle">全部线程退出后finish，退出登录则clear</text><line x1="2730.0" y1="1999" x2="1170.0" y2="1999" stroke="#64748b" stroke-width="2" stroke-dasharray="7 5" /><line x1="1170.0" y1="1999" x2="1183.0" y2="1992.0" stroke="#64748b" stroke-width="2" /><line x1="1170.0" y1="1999" x2="1183.0" y2="2006.0" stroke="#64748b" stroke-width="2" /><text x="1950.0" y="1988" fill="#1e293b" font-family="Microsoft YaHei, sans-serif" font-size="14" text-anchor="middle">最后同步批次，最多保留500ms</text><line x1="1170.0" y1="2056" x2="1260.0" y2="2056" stroke="#64748b" stroke-width="2" /><line x1="1260.0" y1="2056" x2="1260.0" y2="2074" stroke="#64748b" stroke-width="2" /><line x1="1260.0" y1="2074" x2="1170.0" y2="2074" stroke="#64748b" stroke-width="2" /><line x1="1170.0" y1="2074" x2="1183.0" y2="2067.0" stroke="#64748b" stroke-width="2" /><line x1="1170.0" y1="2074" x2="1183.0" y2="2081.0" stroke="#64748b" stroke-width="2" /><text x="1178.0" y="2045" fill="#1e293b" font-family="Microsoft YaHei, sans-serif" font-size="14" text-anchor="start">发同步尾部信号，预览不重新打开</text><line x1="1170.0" y1="2113" x2="390.0" y2="2113" stroke="#64748b" stroke-width="2" /><line x1="390.0" y1="2113" x2="403.0" y2="2106.0" stroke="#64748b" stroke-width="2" /><line x1="390.0" y1="2113" x2="403.0" y2="2120.0" stroke="#64748b" stroke-width="2" /><text x="780.0" y="2102" fill="#1e293b" font-family="Microsoft YaHei, sans-serif" font-size="14" text-anchor="middle">全部已停止，登录状态允许时可重新选择</text><rect x="1501.5" y="2143" width="377.0" height="40" fill="#fef9c3" stroke="#334155" stroke-width="2" /><text x="1690.0" y="2165" fill="#1e293b" font-family="Microsoft YaHei, sans-serif" font-size="13" text-anchor="middle">采集与检测全部finished后才解锁重新启动；GUI不等待GPU</text><rect x="1116.5" y="2200" width="367.0" height="40" fill="#fef9c3" stroke="#334155" stroke-width="2" /><text x="1300.0" y="2222" fill="#1e293b" font-family="Microsoft YaHei, sans-serif" font-size="13" text-anchor="middle">关闭程序时控制器析构wait并释放滤波器；不保证尾部交付</text></svg>