<?xml version='1.0' encoding='utf-8'?>
<svg xmlns="http://www.w3.org/2000/svg" width="3120" height="2547" viewBox="0 0 3120 2547"><text x="35" y="46" fill="#1e293b" font-family="Microsoft YaHei, sans-serif" font-size="26" text-anchor="start">采集停止清理时序图</text><rect x="18.0" y="80" width="224" height="55" fill="#e0f2fe" stroke="#334155" stroke-width="2" /><text x="130.0" y="113" fill="#1e293b" font-family="Microsoft YaHei, sans-serif" font-size="17" text-anchor="middle">用户</text><line x1="130.0" y1="135" x2="130.0" y2="2512" stroke="#64748b" stroke-width="2" stroke-dasharray="7 5" /><rect x="278.0" y="80" width="224" height="55" fill="#e0f2fe" stroke="#334155" stroke-width="2" /><text x="390.0" y="113" fill="#1e293b" font-family="Microsoft YaHei, sans-serif" font-size="17" text-anchor="middle">MainWindow</text><line x1="390.0" y1="135" x2="390.0" y2="2512" stroke="#64748b" stroke-width="2" stroke-dasharray="7 5" /><rect x="538.0" y="80" width="224" height="55" fill="#e0f2fe" stroke="#334155" stroke-width="2" /><text x="650.0" y="113" fill="#1e293b" font-family="Microsoft YaHei, sans-serif" font-size="17" text-anchor="middle">PreviewWindow</text><line x1="650.0" y1="135" x2="650.0" y2="2512" stroke="#64748b" stroke-width="2" stroke-dasharray="7 5" /><rect x="798.0" y="80" width="224" height="55" fill="#e0f2fe" stroke="#334155" stroke-width="2" /><text x="910.0" y="113" fill="#1e293b" font-family="Microsoft YaHei, sans-serif" font-size="17" text-anchor="middle">VideoRenderer</text><line x1="910.0" y1="135" x2="910.0" y2="2512" stroke="#64748b" stroke-width="2" stroke-dasharray="7 5" /><rect x="1058.0" y="80" width="224" height="55" fill="#e0f2fe" stroke="#334155" stroke-width="2" /><text x="1170.0" y="113" fill="#1e293b" font-family="Microsoft YaHei, sans-serif" font-size="17" text-anchor="middle">SessionController</text><line x1="1170.0" y1="135" x2="1170.0" y2="2512" stroke="#64748b" stroke-width="2" stroke-dasharray="7 5" /><rect x="1318.0" y="80" width="224" height="55" fill="#e0f2fe" stroke="#334155" stroke-width="2" /><text x="1430.0" y="113" fill="#1e293b" font-family="Microsoft YaHei, sans-serif" font-size="17" text-anchor="middle">三个采集工作线程</text><line x1="1430.0" y1="135" x2="1430.0" y2="2512" stroke="#64748b" stroke-width="2" stroke-dasharray="7 5" /><rect x="1578.0" y="80" width="224" height="55" fill="#e0f2fe" stroke="#334155" stroke-width="2" /><text x="1690.0" y="113" fill="#1e293b" font-family="Microsoft YaHei, sans-serif" font-size="17" text-anchor="middle">Windows采集资源</text><line x1="1690.0" y1="135" x2="1690.0" y2="2512" stroke="#64748b" stroke-width="2" stroke-dasharray="7 5" /><rect x="1838.0" y="80" width="224" height="55" fill="#e0f2fe" stroke="#334155" stroke-width="2" /><text x="1950.0" y="113" fill="#1e293b" font-family="Microsoft YaHei, sans-serif" font-size="17" text-anchor="middle">AudioMixer</text><line x1="1950.0" y1="135" x2="1950.0" y2="2512" stroke="#64748b" stroke-width="2" stroke-dasharray="7 5" /><rect x="2098.0" y="80" width="224" height="55" fill="#e0f2fe" stroke="#334155" stroke-width="2" /><text x="2210.0" y="113" fill="#1e293b" font-family="Microsoft YaHei, sans-serif" font-size="17" text-anchor="middle">GpuFaceDetector线程</text><line x1="2210.0" y1="135" x2="2210.0" y2="2512" stroke="#64748b" stroke-width="2" stroke-dasharray="7 5" /><rect x="2358.0" y="80" width="224" height="55" fill="#e0f2fe" stroke="#334155" stroke-width="2" /><text x="2470.0" y="113" fill="#1e293b" font-family="Microsoft YaHei, sans-serif" font-size="17" text-anchor="middle">CUDA资源</text><line x1="2470.0" y1="135" x2="2470.0" y2="2512" stroke="#64748b" stroke-width="2" stroke-dasharray="7 5" /><rect x="2618.0" y="80" width="224" height="55" fill="#e0f2fe" stroke="#334155" stroke-width="2" /><text x="2730.0" y="113" fill="#1e293b" font-family="Microsoft YaHei, sans-serif" font-size="17" text-anchor="middle">MediaTimeline</text><line x1="2730.0" y1="135" x2="2730.0" y2="2512" stroke="#64748b" stroke-width="2" stroke-dasharray="7 5" /><rect x="2878.0" y="80" width="224" height="55" fill="#e0f2fe" stroke="#334155" stroke-width="2" /><text x="2990.0" y="113" fill="#1e293b" font-family="Microsoft YaHei, sans-serif" font-size="17" text-anchor="middle">MediaPublisher线程</text><line x1="2990.0" y1="135" x2="2990.0" y2="2512" stroke="#64748b" stroke-width="2" stroke-dasharray="7 5" /><line x1="130.0" y1="175" x2="390.0" y2="175" stroke="#64748b" stroke-width="2" /><line x1="390.0" y1="175" x2="377.0" y2="182.0" stroke="#64748b" stroke-width="2" /><line x1="390.0" y1="175" x2="377.0" y2="168.0" stroke="#64748b" stroke-width="2" /><text x="260.0" y="164" fill="#1e293b" font-family="Microsoft YaHei, sans-serif" font-size="14" text-anchor="middle">停止采集或退出登录</text><line x1="390.0" y1="232" x2="1170.0" y2="232" stroke="#64748b" stroke-width="2" stroke-dasharray="7 5" /><line x1="1170.0" y1="232" x2="1157.0" y2="239.0" stroke="#64748b" stroke-width="2" /><line x1="1170.0" y1="232" x2="1157.0" y2="225.0" stroke="#64748b" stroke-width="2" /><text x="780.0" y="221" fill="#1e293b" font-family="Microsoft YaHei, sans-serif" font-size="14" text-anchor="middle">stopCaptureRequested 或登录状态变化</text><line x1="1170.0" y1="289" x2="1260.0" y2="289" stroke="#64748b" stroke-width="2" /><line x1="1260.0" y1="289" x2="1260.0" y2="307" stroke="#64748b" stroke-width="2" /><line x1="1260.0" y1="307" x2="1170.0" y2="307" stroke="#64748b" stroke-width="2" /><line x1="1170.0" y1="307" x2="1183.0" y2="300.0" stroke="#64748b" stroke-width="2" /><line x1="1170.0" y1="307" x2="1183.0" y2="314.0" stroke="#64748b" stroke-width="2" /><text x="1178.0" y="278" fill="#1e293b" font-family="Microsoft YaHei, sans-serif" font-size="14" text-anchor="start">停止视频/普通音频交付，清空预览</text><line x1="1170.0" y1="346" x2="1430.0" y2="346" stroke="#64748b" stroke-width="2" /><line x1="1430.0" y1="346" x2="1417.0" y2="353.0" stroke="#64748b" stroke-width="2" /><line x1="1430.0" y1="346" x2="1417.0" y2="339.0" stroke="#64748b" stroke-width="2" /><text x="1300.0" y="335" fill="#1e293b" font-family="Microsoft YaHei, sans-serif" font-size="14" text-anchor="middle">stop / requestInterruption</text><line x1="1170.0" y1="403" x2="2210.0" y2="403" stroke="#64748b" stroke-width="2" /><line x1="2210.0" y1="403" x2="2197.0" y2="410.0" stroke="#64748b" stroke-width="2" /><line x1="2210.0" y1="403" x2="2197.0" y2="396.0" stroke="#64748b" stroke-width="2" /><text x="1690.0" y="392" fill="#1e293b" font-family="Microsoft YaHei, sans-serif" font-size="14" text-anchor="middle">stop，清空输入/结果并唤醒</text><line x1="1170.0" y1="460" x2="390.0" y2="460" stroke="#64748b" stroke-width="2" /><line x1="390.0" y1="460" x2="403.0" y2="453.0" stroke="#64748b" stroke-width="2" /><line x1="390.0" y1="460" x2="403.0" y2="467.0" stroke="#64748b" stroke-width="2" /><text x="780.0" y="449" fill="#1e293b" font-family="Microsoft YaHei, sans-serif" font-size="14" text-anchor="middle">显示正在停止，禁用重新启动</text><line x1="390.0" y1="517" x2="650.0" y2="517" stroke="#64748b" stroke-width="2" /><line x1="650.0" y1="517" x2="637.0" y2="524.0" stroke="#64748b" stroke-width="2" /><line x1="650.0" y1="517" x2="637.0" y2="510.0" stroke="#64748b" stroke-width="2" /><text x="520.0" y="506" fill="#1e293b" font-family="Microsoft YaHei, sans-serif" font-size="14" text-anchor="middle">清空画面并隐藏独立窗口</text><line x1="650.0" y1="574" x2="910.0" y2="574" stroke="#64748b" stroke-width="2" /><line x1="910.0" y1="574" x2="897.0" y2="581.0" stroke="#64748b" stroke-width="2" /><line x1="910.0" y1="574" x2="897.0" y2="567.0" stroke="#64748b" stroke-width="2" /><text x="780.0" y="563" fill="#1e293b" font-family="Microsoft YaHei, sans-serif" font-size="14" text-anchor="middle">clear，释放SRV/RTV/SwapChain和帧引用</text><text x="14" y="622" fill="#1e293b" font-family="Microsoft YaHei, sans-serif" font-size="14" text-anchor="start">[alt] 退出登录或登录失效</text><line x1="8" y1="603" x2="3112" y2="603" stroke="#64748b" stroke-width="2" /><line x1="1170.0" y1="688" x2="1950.0" y2="688" stroke="#64748b" stroke-width="2" /><line x1="1950.0" y1="688" x2="1937.0" y2="695.0" stroke="#64748b" stroke-width="2" /><line x1="1950.0" y1="688" x2="1937.0" y2="681.0" stroke="#64748b" stroke-width="2" /><text x="1560.0" y="677" fill="#1e293b" font-family="Microsoft YaHei, sans-serif" font-size="14" text-anchor="middle">clear，立即丢弃缓存与滤波尾部</text><line x1="1170.0" y1="745" x2="2730.0" y2="745" stroke="#64748b" stroke-width="2" /><line x1="2730.0" y1="745" x2="2717.0" y2="752.0" stroke="#64748b" stroke-width="2" /><line x1="2730.0" y1="745" x2="2717.0" y2="738.0" stroke="#64748b" stroke-width="2" /><text x="1950.0" y="734" fill="#1e293b" font-family="Microsoft YaHei, sans-serif" font-size="14" text-anchor="middle">clear，立即丢弃同步队列和纹理</text><line x1="1170.0" y1="802" x2="2990.0" y2="802" stroke="#64748b" stroke-width="2" /><line x1="2990.0" y1="802" x2="2977.0" y2="809.0" stroke="#64748b" stroke-width="2" /><line x1="2990.0" y1="802" x2="2977.0" y2="795.0" stroke="#64748b" stroke-width="2" /><text x="2080.0" y="791" fill="#1e293b" font-family="Microsoft YaHei, sans-serif" font-size="14" text-anchor="middle">stop，封存已入队数据</text><line x1="8" y1="831" x2="3112" y2="831" stroke="#64748b" stroke-width="2" stroke-dasharray="7 5" /><text x="14" y="850" fill="#1e293b" font-family="Microsoft YaHei, sans-serif" font-size="14" text-anchor="start">[else] 普通停止</text><line x1="1170.0" y1="916" x2="1260.0" y2="916" stroke="#64748b" stroke-width="2" /><line x1="1260.0" y1="916" x2="1260.0" y2="934" stroke="#64748b" stroke-width="2" /><line x1="1260.0" y1="934" x2="1170.0" y2="934" stroke="#64748b" stroke-width="2" /><line x1="1170.0" y1="934" x2="1183.0" y2="927.0" stroke="#64748b" stroke-width="2" /><line x1="1170.0" y1="934" x2="1183.0" y2="941.0" stroke="#64748b" stroke-width="2" /><text x="1178.0" y="905" fill="#1e293b" font-family="Microsoft YaHei, sans-serif" font-size="14" text-anchor="start">保留音频尾部，等线程结束后排空</text><line x1="8" y1="603" x2="8" y2="951" stroke="#64748b" stroke-width="2" /><line x1="3112" y1="603" x2="3112" y2="951" stroke="#64748b" stroke-width="2" /><line x1="8" y1="951" x2="3112" y2="951" stroke="#64748b" stroke-width="2" /><line x1="1430.0" y1="1030" x2="1520.0" y2="1030" stroke="#64748b" stroke-width="2" /><line x1="1520.0" y1="1030" x2="1520.0" y2="1048" stroke="#64748b" stroke-width="2" /><line x1="1520.0" y1="1048" x2="1430.0" y2="1048" stroke="#64748b" stroke-width="2" /><line x1="1430.0" y1="1048" x2="1443.0" y2="1041.0" stroke="#64748b" stroke-width="2" /><line x1="1430.0" y1="1048" x2="1443.0" y2="1055.0" stroke="#64748b" stroke-width="2" /><text x="1438.0" y="1019" fill="#1e293b" font-family="Microsoft YaHei, sans-serif" font-size="14" text-anchor="start">初始化等待或采集轮询检查停止标志</text><line x1="1430.0" y1="1087" x2="1690.0" y2="1087" stroke="#64748b" stroke-width="2" /><line x1="1690.0" y1="1087" x2="1677.0" y2="1094.0" stroke="#64748b" stroke-width="2" /><line x1="1690.0" y1="1087" x2="1677.0" y2="1080.0" stroke="#64748b" stroke-width="2" /><text x="1560.0" y="1076" fill="#1e293b" font-family="Microsoft YaHei, sans-serif" font-size="14" text-anchor="middle">停止及关闭Reader/Session/FramePool/AudioClient</text><line x1="1430.0" y1="1144" x2="1520.0" y2="1144" stroke="#64748b" stroke-width="2" /><line x1="1520.0" y1="1144" x2="1520.0" y2="1162" stroke="#64748b" stroke-width="2" /><line x1="1520.0" y1="1162" x2="1430.0" y2="1162" stroke="#64748b" stroke-width="2" /><line x1="1430.0" y1="1162" x2="1443.0" y2="1155.0" stroke="#64748b" stroke-width="2" /><line x1="1430.0" y1="1162" x2="1443.0" y2="1169.0" stroke="#64748b" stroke-width="2" /><text x="1438.0" y="1133" fill="#1e293b" font-family="Microsoft YaHei, sans-serif" font-size="14" text-anchor="start">释放COM资源后反初始化MTA</text><line x1="1430.0" y1="1201" x2="1170.0" y2="1201" stroke="#64748b" stroke-width="2" stroke-dasharray="7 5" /><line x1="1170.0" y1="1201" x2="1183.0" y2="1194.0" stroke="#64748b" stroke-width="2" /><line x1="1170.0" y1="1201" x2="1183.0" y2="1208.0" stroke="#64748b" stroke-width="2" /><text x="1300.0" y="1190" fill="#1e293b" font-family="Microsoft YaHei, sans-serif" font-size="14" text-anchor="middle">finished</text><line x1="1170.0" y1="1258" x2="1260.0" y2="1258" stroke="#64748b" stroke-width="2" /><line x1="1260.0" y1="1258" x2="1260.0" y2="1276" stroke="#64748b" stroke-width="2" /><line x1="1260.0" y1="1276" x2="1170.0" y2="1276" stroke="#64748b" stroke-width="2" /><line x1="1170.0" y1="1276" x2="1183.0" y2="1269.0" stroke="#64748b" stroke-width="2" /><line x1="1170.0" y1="1276" x2="1183.0" y2="1283.0" stroke="#64748b" stroke-width="2" /><text x="1178.0" y="1247" fill="#1e293b" font-family="Microsoft YaHei, sans-serif" font-size="14" text-anchor="start">取走最后采集包，再移除未完成线程</text><text x="14" y="1306" fill="#1e293b" font-family="Microsoft YaHei, sans-serif" font-size="14" text-anchor="start">[alt] 普通停止且两路音频均退出</text><line x1="8" y1="1287" x2="3112" y2="1287" stroke="#64748b" stroke-width="2" /><line x1="1170.0" y1="1372" x2="1950.0" y2="1372" stroke="#64748b" stroke-width="2" /><line x1="1950.0" y1="1372" x2="1937.0" y2="1379.0" stroke="#64748b" stroke-width="2" /><line x1="1950.0" y1="1372" x2="1937.0" y2="1365.0" stroke="#64748b" stroke-width="2" /><text x="1560.0" y="1361" fill="#1e293b" font-family="Microsoft YaHei, sans-serif" font-size="14" text-anchor="middle">finish，排空重采样尾部和最后补零包</text><line x1="1950.0" y1="1429" x2="1170.0" y2="1429" stroke="#64748b" stroke-width="2" stroke-dasharray="7 5" /><line x1="1170.0" y1="1429" x2="1183.0" y2="1422.0" stroke="#64748b" stroke-width="2" /><line x1="1170.0" y1="1429" x2="1183.0" y2="1436.0" stroke="#64748b" stroke-width="2" /><text x="1560.0" y="1418" fill="#1e293b" font-family="Microsoft YaHei, sans-serif" font-size="14" text-anchor="middle">最后的固定10ms输出</text><line x1="1170.0" y1="1486" x2="1260.0" y2="1486" stroke="#64748b" stroke-width="2" /><line x1="1260.0" y1="1486" x2="1260.0" y2="1504" stroke="#64748b" stroke-width="2" /><line x1="1260.0" y1="1504" x2="1170.0" y2="1504" stroke="#64748b" stroke-width="2" /><line x1="1170.0" y1="1504" x2="1183.0" y2="1497.0" stroke="#64748b" stroke-width="2" /><line x1="1170.0" y1="1504" x2="1183.0" y2="1511.0" stroke="#64748b" stroke-width="2" /><text x="1178.0" y="1475" fill="#1e293b" font-family="Microsoft YaHei, sans-serif" font-size="14" text-anchor="start">emit mixedAudioReady</text><line x1="1170.0" y1="1543" x2="2730.0" y2="1543" stroke="#64748b" stroke-width="2" /><line x1="2730.0" y1="1543" x2="2717.0" y2="1550.0" stroke="#64748b" stroke-width="2" /><line x1="2730.0" y1="1543" x2="2717.0" y2="1536.0" stroke="#64748b" stroke-width="2" /><text x="1950.0" y="1532" fill="#1e293b" font-family="Microsoft YaHei, sans-serif" font-size="14" text-anchor="middle">pushAudio尾部，尚不恢复普通交付</text><line x1="8" y1="1572" x2="3112" y2="1572" stroke="#64748b" stroke-width="2" stroke-dasharray="7 5" /><text x="14" y="1591" fill="#1e293b" font-family="Microsoft YaHei, sans-serif" font-size="14" text-anchor="start">[else] 已退出登录</text><line x1="1170.0" y1="1657" x2="1260.0" y2="1657" stroke="#64748b" stroke-width="2" /><line x1="1260.0" y1="1657" x2="1260.0" y2="1675" stroke="#64748b" stroke-width="2" /><line x1="1260.0" y1="1675" x2="1170.0" y2="1675" stroke="#64748b" stroke-width="2" /><line x1="1170.0" y1="1675" x2="1183.0" y2="1668.0" stroke="#64748b" stroke-width="2" /><line x1="1170.0" y1="1675" x2="1183.0" y2="1682.0" stroke="#64748b" stroke-width="2" /><text x="1178.0" y="1646" fill="#1e293b" font-family="Microsoft YaHei, sans-serif" font-size="14" text-anchor="start">丢弃迟到包，不交付混音</text><line x1="8" y1="1287" x2="8" y2="1692" stroke="#64748b" stroke-width="2" /><line x1="3112" y1="1287" x2="3112" y2="1692" stroke="#64748b" stroke-width="2" /><line x1="8" y1="1692" x2="3112" y2="1692" stroke="#64748b" stroke-width="2" /><line x1="1170.0" y1="1771" x2="390.0" y2="1771" stroke="#64748b" stroke-width="2" /><line x1="390.0" y1="1771" x2="403.0" y2="1764.0" stroke="#64748b" stroke-width="2" /><line x1="390.0" y1="1771" x2="403.0" y2="1778.0" stroke="#64748b" stroke-width="2" /><text x="780.0" y="1760" fill="#1e293b" font-family="Microsoft YaHei, sans-serif" font-size="14" text-anchor="middle">采集已退出，等待检测线程清理</text><line x1="2210.0" y1="1828" x2="2300.0" y2="1828" stroke="#64748b" stroke-width="2" /><line x1="2300.0" y1="1828" x2="2300.0" y2="1846" stroke="#64748b" stroke-width="2" /><line x1="2300.0" y1="1846" x2="2210.0" y2="1846" stroke="#64748b" stroke-width="2" /><line x1="2210.0" y1="1846" x2="2223.0" y2="1839.0" stroke="#64748b" stroke-width="2" /><line x1="2210.0" y1="1846" x2="2223.0" y2="1853.0" stroke="#64748b" stroke-width="2" /><text x="2218.0" y="1817" fill="#1e293b" font-family="Microsoft YaHei, sans-serif" font-size="14" text-anchor="start">已提交GPU任务完成后丢弃迟到结果</text><line x1="2210.0" y1="1885" x2="2470.0" y2="1885" stroke="#64748b" stroke-width="2" /><line x1="2470.0" y1="1885" x2="2457.0" y2="1892.0" stroke="#64748b" stroke-width="2" /><line x1="2470.0" y1="1885" x2="2457.0" y2="1878.0" stroke="#64748b" stroke-width="2" /><text x="2340.0" y="1874" fill="#1e293b" font-family="Microsoft YaHei, sans-serif" font-size="14" text-anchor="middle">同步、注销中间纹理、释放推理和显存资源</text><line x1="2210.0" y1="1942" x2="1170.0" y2="1942" stroke="#64748b" stroke-width="2" stroke-dasharray="7 5" /><line x1="1170.0" y1="1942" x2="1183.0" y2="1935.0" stroke="#64748b" stroke-width="2" /><line x1="1170.0" y1="1942" x2="1183.0" y2="1949.0" stroke="#64748b" stroke-width="2" /><text x="1690.0" y="1931" fill="#1e293b" font-family="Microsoft YaHei, sans-serif" font-size="14" text-anchor="middle">finished，移除未完成线程</text><line x1="1170.0" y1="1999" x2="2730.0" y2="1999" stroke="#64748b" stroke-width="2" /><line x1="2730.0" y1="1999" x2="2717.0" y2="2006.0" stroke="#64748b" stroke-width="2" /><line x1="2730.0" y1="1999" x2="2717.0" y2="1992.0" stroke="#64748b" stroke-width="2" /><text x="1950.0" y="1988" fill="#1e293b" font-family="Microsoft YaHei, sans-serif" font-size="14" text-anchor="middle">全部线程退出后finish，退出登录则clear</text><line x1="2730.0" y1="2056" x2="1170.0" y2="2056" stroke="#64748b" stroke-width="2" stroke-dasharray="7 5" /><line x1="1170.0" y1="2056" x2="1183.0" y2="2049.0" stroke="#64748b" stroke-width="2" /><line x1="1170.0" y1="2056" x2="1183.0" y2="2063.0" stroke="#64748b" stroke-width="2" /><text x="1950.0" y="2045" fill="#1e293b" font-family="Microsoft YaHei, sans-serif" font-size="14" text-anchor="middle">最后同步批次，最多保留500ms</text><line x1="1170.0" y1="2113" x2="1260.0" y2="2113" stroke="#64748b" stroke-width="2" /><line x1="1260.0" y1="2113" x2="1260.0" y2="2131" stroke="#64748b" stroke-width="2" /><line x1="1260.0" y1="2131" x2="1170.0" y2="2131" stroke="#64748b" stroke-width="2" /><line x1="1170.0" y1="2131" x2="1183.0" y2="2124.0" stroke="#64748b" stroke-width="2" /><line x1="1170.0" y1="2131" x2="1183.0" y2="2138.0" stroke="#64748b" stroke-width="2" /><text x="1178.0" y="2102" fill="#1e293b" font-family="Microsoft YaHei, sans-serif" font-size="14" text-anchor="start">发同步尾部信号，预览不重新打开</text><line x1="1170.0" y1="2170" x2="2990.0" y2="2170" stroke="#64748b" stroke-width="2" /><line x1="2990.0" y1="2170" x2="2977.0" y2="2177.0" stroke="#64748b" stroke-width="2" /><line x1="2990.0" y1="2170" x2="2977.0" y2="2163.0" stroke="#64748b" stroke-width="2" /><text x="2080.0" y="2159" fill="#1e293b" font-family="Microsoft YaHei, sans-serif" font-size="14" text-anchor="middle">同步尾部入队后stop</text><line x1="2990.0" y1="2227" x2="3080.0" y2="2227" stroke="#64748b" stroke-width="2" /><line x1="3080.0" y1="2227" x2="3080.0" y2="2245" stroke="#64748b" stroke-width="2" /><line x1="3080.0" y1="2245" x2="2990.0" y2="2245" stroke="#64748b" stroke-width="2" /><line x1="2990.0" y1="2245" x2="3003.0" y2="2238.0" stroke="#64748b" stroke-width="2" /><line x1="2990.0" y1="2245" x2="3003.0" y2="2252.0" stroke="#64748b" stroke-width="2" /><text x="2736.0" y="2216" fill="#1e293b" font-family="Microsoft YaHei, sans-serif" font-size="14" text-anchor="start">排空编码器、写MP4 trailer、原子改名</text><line x1="2990.0" y1="2284" x2="1170.0" y2="2284" stroke="#64748b" stroke-width="2" stroke-dasharray="7 5" /><line x1="1170.0" y1="2284" x2="1183.0" y2="2277.0" stroke="#64748b" stroke-width="2" /><line x1="1170.0" y1="2284" x2="1183.0" y2="2291.0" stroke="#64748b" stroke-width="2" /><text x="2080.0" y="2273" fill="#1e293b" font-family="Microsoft YaHei, sans-serif" font-size="14" text-anchor="middle">completed或failed，再finished</text><line x1="1170.0" y1="2341" x2="390.0" y2="2341" stroke="#64748b" stroke-width="2" /><line x1="390.0" y1="2341" x2="403.0" y2="2334.0" stroke="#64748b" stroke-width="2" /><line x1="390.0" y1="2341" x2="403.0" y2="2348.0" stroke="#64748b" stroke-width="2" /><text x="780.0" y="2330" fill="#1e293b" font-family="Microsoft YaHei, sans-serif" font-size="14" text-anchor="middle">全部已停止，登录状态允许时可重新选择</text><rect x="1882.0" y="2371" width="396.0" height="40" fill="#fef9c3" stroke="#334155" stroke-width="2" /><text x="2080.0" y="2393" fill="#1e293b" font-family="Microsoft YaHei, sans-serif" font-size="13" text-anchor="middle">采集、检测及录制全部finished后才解锁；GUI不等待GPU/写出</text><rect x="1097.0" y="2428" width="406.0" height="40" fill="#fef9c3" stroke="#334155" stroke-width="2" /><text x="1300.0" y="2450" fill="#1e293b" font-family="Microsoft YaHei, sans-serif" font-size="13" text-anchor="middle">析构wait回收资源、封存已编码输入；未交付同步尾部不保证补送</text></svg>